<svg xmlns="http://www.w3.org/2000/svg" xmlns:xlink="http://www.w3.org/1999/xlink" viewBox="0 0 425.72 407.79"><defs><style>.cls-1{isolation:isolate;}.cls-2{fill:#ffbfa2;}.cls-3{fill:#60424c;}.cls-4{fill:#ef9262;}.cls-5{fill:#eb655f;}.cls-6{fill:url(#linear-gradient);}.cls-7{fill:url(#linear-gradient-2);}.cls-8{fill:#8c4e5a;}.cls-9{fill:#f9f9f9;}.cls-10{fill:#ffd0bb;}.cls-11{fill:#cd784f;}.cls-12{fill:#b8664d;}.cls-13{fill:#9f5045;}.cls-14{fill:#10284b;}.cls-15{fill:#fff;}.cls-16{fill:#c25955;}.cls-17{fill:url(#linear-gradient-3);}.cls-18{fill:#e4f3f3;}.cls-19{fill:#1c5d5d;}.cls-20{fill:#ffffb1;mix-blend-mode:overlay;opacity:0.35;}.cls-21{fill:url(#linear-gradient-4);}</style><linearGradient id="linear-gradient" x1="162.55" y1="175.83" x2="276.07" y2="308.86" gradientUnits="userSpaceOnUse"><stop offset="0" stop-color="#60424c" stop-opacity="0"/><stop offset="1" stop-color="#60424c"/></linearGradient><linearGradient id="linear-gradient-2" x1="309.81" y1="294.74" x2="336.87" y2="261.47" gradientUnits="userSpaceOnUse"><stop offset="0" stop-color="#8c4e5a"/><stop offset="1" stop-color="#60424c"/></linearGradient><linearGradient id="linear-gradient-3" x1="93.6" y1="364.2" x2="125.35" y2="364.2" gradientTransform="translate(-14.21 -4.38) rotate(-2.41)" xlink:href="#linear-gradient-2"/><linearGradient id="linear-gradient-4" x1="377.67" y1="350.51" x2="380.49" y2="398.44" gradientUnits="userSpaceOnUse"><stop offset="0" stop-color="#ef9262"/><stop offset="1" stop-color="#8c4e5a"/></linearGradient></defs><g class="cls-1"><g id="OBJECTS"><ellipse class="cls-2" cx="182.74" cy="274.82" rx="181.98" ry="132.97"/><path class="cls-3" d="M158.19,293.11a2.23,2.23,0,0,1-2.21-2.24h0a2.23,2.23,0,0,1,2.23-2.2h0a2.19,2.19,0,0,1,2.2,2.23h0a2.22,2.22,0,0,1-2.21,2.21h0Zm8.86-2.49a2.22,2.22,0,0,1,2-2.39h0a2.22,2.22,0,0,1,2.4,2h0a2.21,2.21,0,0,1-2,2.39h-.19A2.21,2.21,0,0,1,167.05,290.62Zm-20.12,1.91h0a2.21,2.21,0,0,1-2-2.42h0a2.22,2.22,0,0,1,2.41-2h0a2.22,2.22,0,0,1,2,2.41h0a2.22,2.22,0,0,1-2.21,2h-.21Zm31.12-3.17a2.22,2.22,0,0,1,1.78-2.57h0a2.23,2.23,0,0,1,2.59,1.78h0a2.25,2.25,0,0,1-1.8,2.59h0v0h0a1.23,1.23,0,0,1-.39.05h0A2.22,2.22,0,0,1,178.05,289.36Zm-42.28,1.56h0a2.2,2.2,0,0,1-1.76-2.59h0a2.21,2.21,0,0,1,2.59-1.76h0a2.23,2.23,0,0,1,1.76,2.59h0a2.23,2.23,0,0,1-2.18,1.81h0A1.51,1.51,0,0,1,135.77,290.92Zm53.12-3.83a2.22,2.22,0,0,1,1.54-2.74h0a2.22,2.22,0,0,1,2.72,1.54h0a2.22,2.22,0,0,1-1.53,2.74h0a2.47,2.47,0,0,1-.6.08h0A2.21,2.21,0,0,1,188.89,287.09Zm-64.08,1.2a2.22,2.22,0,0,1-1.52-2.75h0A2.23,2.23,0,0,1,126,284h0a2.23,2.23,0,0,1,1.51,2.75h0a2.22,2.22,0,0,1-2.13,1.59h0A2.13,2.13,0,0,1,124.81,288.29Zm74.65-4.48a2.22,2.22,0,0,1,1.28-2.86h0a2.23,2.23,0,0,1,2.87,1.28h0a2.22,2.22,0,0,1-1.29,2.85h0a2.13,2.13,0,0,1-.78.16h0A2.23,2.23,0,0,1,199.46,283.81Zm-85.33.83h0a2.22,2.22,0,0,1-1.24-2.88h0a2.22,2.22,0,0,1,2.87-1.24h0a2.21,2.21,0,0,1,1.25,2.87h0A2.22,2.22,0,0,1,115,284.8h0A2.39,2.39,0,0,1,114.13,284.64Zm95.56-5.07a2.21,2.21,0,0,1,1-3h0a2.21,2.21,0,0,1,3,1h0a2.21,2.21,0,0,1-1,3h0a2.19,2.19,0,0,1-1,.24h0A2.23,2.23,0,0,1,209.69,279.57ZM103.85,280a2.2,2.2,0,0,1-1-3h0a2.22,2.22,0,0,1,3-1h0a2.23,2.23,0,0,1,1,3h0a2.23,2.23,0,0,1-2,1.22h0A2.15,2.15,0,0,1,103.85,280Zm115.62-5.63a2.21,2.21,0,0,1,.73-3h0a2.21,2.21,0,0,1,3.05.72h0a2.21,2.21,0,0,1-.73,3h0a2.16,2.16,0,0,1-1.15.34h0A2.23,2.23,0,0,1,219.47,274.38ZM94,274.45h0a2.23,2.23,0,0,1-.69-3.06h0a2.21,2.21,0,0,1,3-.7h0a2.21,2.21,0,0,1,.7,3.06h0a2.19,2.19,0,0,1-1.87,1h0A2.18,2.18,0,0,1,94,274.45Zm134.69-6.14a2.22,2.22,0,0,1,.45-3.1h0a2.23,2.23,0,0,1,3.1.44h0a2.23,2.23,0,0,1-.43,3.11h0a2.24,2.24,0,0,1-1.34.44h0A2.25,2.25,0,0,1,228.73,268.31ZM84.79,268h0a2.21,2.21,0,0,1-.41-3.11h0a2.21,2.21,0,0,1,3.1-.4h0a2.2,2.2,0,0,1,.41,3.1h0a2.21,2.21,0,0,1-1.76.87h0A2.16,2.16,0,0,1,84.79,268Zm152.62-6.58a2.21,2.21,0,0,1,.14-3.13h0a2.23,2.23,0,0,1,3.14.15h0a2.21,2.21,0,0,1-.16,3.13h0a2.2,2.2,0,0,1-1.48.57h0A2.18,2.18,0,0,1,237.41,261.42Zm-161.24-.7h0A2.2,2.2,0,0,1,76,257.6h0a2.23,2.23,0,0,1,3.14-.12h0a2.21,2.21,0,0,1,.12,3.13h0a2.22,2.22,0,0,1-1.63.71h0A2.17,2.17,0,0,1,76.17,260.72Zm169.22-7a2.24,2.24,0,0,1-.13-3.14h0a2.21,2.21,0,0,1,3.13-.13h0a2.21,2.21,0,0,1,.14,3.12h0a2.18,2.18,0,0,1-1.64.72h0A2.27,2.27,0,0,1,245.39,253.76ZM68.26,252.69a2.2,2.2,0,0,1,.16-3.12h0a2.22,2.22,0,0,1,3.13.16h0a2.22,2.22,0,0,1-.17,3.13h0a2.16,2.16,0,0,1-1.48.58h0A2.2,2.2,0,0,1,68.26,252.69Zm184.39-7.3a2.23,2.23,0,0,1-.42-3.11h0a2.2,2.2,0,0,1,3.1-.42h0a2.21,2.21,0,0,1,.42,3.1h0a2.18,2.18,0,0,1-1.76.88h0A2.25,2.25,0,0,1,252.65,245.39ZM61.11,244h0a2.22,2.22,0,0,1,.46-3.1h0a2.21,2.21,0,0,1,3.1.47h0a2.21,2.21,0,0,1-.46,3.1h0a2.18,2.18,0,0,1-1.32.44h0A2.21,2.21,0,0,1,61.11,244Zm198-7.57a2.22,2.22,0,0,1-.7-3h0a2.22,2.22,0,0,1,3.05-.71h0a2.23,2.23,0,0,1,.71,3.06h0a2.24,2.24,0,0,1-1.89,1h0A2.25,2.25,0,0,1,259.1,236.39ZM54.81,234.61h0a2.22,2.22,0,0,1,.74-3h0a2.24,2.24,0,0,1,3.05.74h0a2.23,2.23,0,0,1-.75,3.05h0a2.15,2.15,0,0,1-1.15.32h0A2.22,2.22,0,0,1,54.81,234.61Zm209.88-7.78a2.21,2.21,0,0,1-1-3h0a2.22,2.22,0,0,1,3-1h0a2.22,2.22,0,0,1,1,3h0a2.23,2.23,0,0,1-2,1.22h0A2.36,2.36,0,0,1,264.69,226.83ZM49.4,224.72a2.2,2.2,0,0,1,1-3h0a2.22,2.22,0,0,1,3,1h0a2.21,2.21,0,0,1-1,3h0a2.21,2.21,0,0,1-1,.22h0A2.21,2.21,0,0,1,49.4,224.72Zm220-7.93a2.21,2.21,0,0,1-1.26-2.87h0a2.21,2.21,0,0,1,2.87-1.26h0a2.22,2.22,0,0,1,1.26,2.87h0a2.24,2.24,0,0,1-2.07,1.4h0A2.21,2.21,0,0,1,269.38,216.79ZM44.93,214.37h0a2.19,2.19,0,0,1,1.28-2.85h0a2.21,2.21,0,0,1,2.86,1.28h0a2.22,2.22,0,0,1-1.3,2.86h0a2.09,2.09,0,0,1-.77.14h0A2.22,2.22,0,0,1,44.93,214.37Zm228.17-8a2.22,2.22,0,0,1-1.53-2.73h0a2.21,2.21,0,0,1,2.74-1.52h0a2.23,2.23,0,0,1,1.53,2.74h0a2.22,2.22,0,0,1-2.13,1.6h0A1.84,1.84,0,0,1,273.1,206.35ZM41.45,203.64A2.2,2.2,0,0,1,43,200.93h0a2.2,2.2,0,0,1,2.72,1.55h0a2.2,2.2,0,0,1-1.55,2.71h0a2.05,2.05,0,0,1-.58.09h0A2.22,2.22,0,0,1,41.45,203.64Zm234.39-8a2.2,2.2,0,0,1-1.77-2.58h0a2.19,2.19,0,0,1,2.58-1.77h0a2.22,2.22,0,0,1,1.77,2.58h0a2.22,2.22,0,0,1-2.18,1.8h0A2.6,2.6,0,0,1,275.84,195.63ZM39,192.64h0a2.21,2.21,0,0,1,1.8-2.56h0a2.2,2.2,0,0,1,2.56,1.79h0a2.2,2.2,0,0,1-1.79,2.56h0a1.39,1.39,0,0,1-.39,0h0A2.23,2.23,0,0,1,39,192.64Zm238.57-7.94a2.23,2.23,0,0,1-2-2.42h0a2.22,2.22,0,0,1,2.41-2h0a2.21,2.21,0,0,1,2,2.4h0a2.23,2.23,0,0,1-2.2,2h-.22Zm-240-3.24h0a2.22,2.22,0,0,1,2-2.39h0a2.21,2.21,0,0,1,2.38,2h0a2.22,2.22,0,0,1-2,2.39h-.18A2.22,2.22,0,0,1,37.55,181.46Zm238.5-10a2.21,2.21,0,0,1,2.21-2.22h0a2.21,2.21,0,0,1,2.22,2.22h0a2.21,2.21,0,0,1-2.22,2.2h0A2.21,2.21,0,0,1,276.05,171.44Zm-236.72,1a2.22,2.22,0,0,1-2.19-2.24h0A2.23,2.23,0,0,1,39.38,168h0a2.21,2.21,0,0,1,2.19,2.24h0a2.22,2.22,0,0,1-2.22,2.19h0ZM275.75,163a2.2,2.2,0,0,1,2.05-2.36h0a2.22,2.22,0,0,1,2.37,2h0a2.2,2.2,0,0,1-2.05,2.36H278A2.21,2.21,0,0,1,275.75,163Zm-236-1.58a2.22,2.22,0,0,1-2-2.43h0a2.21,2.21,0,0,1,2.43-2h0a2.21,2.21,0,0,1,2,2.42h0a2.23,2.23,0,0,1-2.21,2h-.22Zm234.72-9.21a2.23,2.23,0,0,1,1.83-2.55h0a2.22,2.22,0,0,1,2.55,1.83h0A2.22,2.22,0,0,1,277,154h0l-.36,0h0A2.23,2.23,0,0,1,274.47,152.16ZM41.18,150.39a2.23,2.23,0,0,1-1.75-2.61h0A2.23,2.23,0,0,1,42,146h0a2.23,2.23,0,0,1,1.75,2.6h0a2.24,2.24,0,0,1-2.18,1.79h0A3.28,3.28,0,0,1,41.18,150.39Zm231-8.85a2.22,2.22,0,0,1,1.59-2.71h0a2.21,2.21,0,0,1,2.7,1.59h0a2.21,2.21,0,0,1-1.58,2.7h0a2.8,2.8,0,0,1-.57.08h0A2.25,2.25,0,0,1,272.2,141.54ZM43.62,139.59a2.22,2.22,0,0,1-1.5-2.75h0a2.22,2.22,0,0,1,2.76-1.5h0a2.22,2.22,0,0,1,1.5,2.75h0a2.23,2.23,0,0,1-2.13,1.58h0A2.27,2.27,0,0,1,43.62,139.59ZM269,131.18h0a2.22,2.22,0,0,1,1.32-2.85h0a2.21,2.21,0,0,1,2.84,1.32h0a2.22,2.22,0,0,1-1.32,2.85h0a2.36,2.36,0,0,1-.75.13h0A2.22,2.22,0,0,1,269,131.18Zm-221.9-2.12a2.22,2.22,0,0,1-1.24-2.88h0A2.23,2.23,0,0,1,48.7,125h0a2.2,2.2,0,0,1,1.24,2.88h0a2.21,2.21,0,0,1-2.06,1.39h0A2.17,2.17,0,0,1,47.06,129.06Zm217.7-7.91a2.2,2.2,0,0,1,1-2.94h0a2.22,2.22,0,0,1,3,1.05h0a2.21,2.21,0,0,1-1.05,2.94h0a2.22,2.22,0,0,1-1,.23h0A2.22,2.22,0,0,1,264.76,121.15ZM51.46,118.9a2.21,2.21,0,0,1-1-3h0a2.22,2.22,0,0,1,3-1h0a2.2,2.2,0,0,1,1,3h0a2.24,2.24,0,0,1-2,1.21h0A2.23,2.23,0,0,1,51.46,118.9Zm208.18-7.33a2.21,2.21,0,0,1,.78-3h0a2.22,2.22,0,0,1,3,.78h0a2.23,2.23,0,0,1-.77,3h0a2.35,2.35,0,0,1-1.13.31h0A2.21,2.21,0,0,1,259.64,111.57ZM56.8,109.2a2.22,2.22,0,0,1-.67-3.07h0a2.21,2.21,0,0,1,3-.68h0a2.23,2.23,0,0,1,.68,3.06h0a2.2,2.2,0,0,1-1.87,1h0A2.24,2.24,0,0,1,56.8,109.2Zm196.86-6.7h0a2.2,2.2,0,0,1,.49-3.09h0a2.21,2.21,0,0,1,3.09.48h0a2.21,2.21,0,0,1-.49,3.09h0a2.19,2.19,0,0,1-1.3.44h0A2.23,2.23,0,0,1,253.66,102.5ZM63,100a2.22,2.22,0,0,1-.39-3.12h0a2.2,2.2,0,0,1,3.1-.38h0a2.2,2.2,0,0,1,.4,3.1h0a2.24,2.24,0,0,1-1.75.86h0A2.23,2.23,0,0,1,63,100Zm183.86-6h0a2.2,2.2,0,0,1,.2-3.12h0a2.21,2.21,0,0,1,3.12.2h0a2.21,2.21,0,0,1-.2,3.12h0a2.2,2.2,0,0,1-1.46.55h0A2.17,2.17,0,0,1,246.87,94ZM70,91.46a2.21,2.21,0,0,1-.1-3.12h0a2.21,2.21,0,0,1,3.13-.11h0a2.2,2.2,0,0,1,.1,3.13h0a2.17,2.17,0,0,1-1.61.7h0A2.22,2.22,0,0,1,70,91.46ZM239.31,86.2h0a2.22,2.22,0,0,1-.09-3.13h0a2.23,2.23,0,0,1,3.14-.09h0a2.21,2.21,0,0,1,.09,3.13h0a2.22,2.22,0,0,1-1.62.69h0A2.23,2.23,0,0,1,239.31,86.2ZM77.82,83.59A2.22,2.22,0,0,1,78,80.46h0a2.2,2.2,0,0,1,3.12.19h0A2.2,2.2,0,0,1,81,83.77h0a2.18,2.18,0,0,1-1.47.56h0A2.19,2.19,0,0,1,77.82,83.59Zm153.26-4.48A2.22,2.22,0,0,1,230.7,76h0a2.21,2.21,0,0,1,3.11-.38h0a2.21,2.21,0,0,1,.37,3.11h0a2.22,2.22,0,0,1-1.75.85h0A2.24,2.24,0,0,1,231.08,79.11ZM86.3,76.46a2.21,2.21,0,0,1,.47-3.1h0a2.22,2.22,0,0,1,3.1.48h0a2.22,2.22,0,0,1-.48,3.1h0a2.16,2.16,0,0,1-1.3.43h0A2.21,2.21,0,0,1,86.3,76.46Zm135.93-3.65a2.22,2.22,0,0,1-.66-3.07h0a2.21,2.21,0,0,1,3.05-.67h0a2.23,2.23,0,0,1,.67,3.07h0a2.21,2.21,0,0,1-1.86,1h0A2.29,2.29,0,0,1,222.23,72.81ZM95.4,70.15a2.21,2.21,0,0,1,.75-3h0a2.21,2.21,0,0,1,3,.76h0a2.21,2.21,0,0,1-.76,3h0a2.22,2.22,0,0,1-1.14.31h0A2.18,2.18,0,0,1,95.4,70.15Zm117.43-2.8a2.23,2.23,0,0,1-1-3h0a2.23,2.23,0,0,1,3-.94h0a2.22,2.22,0,0,1,.95,3h0a2.24,2.24,0,0,1-2,1.2h0A2.32,2.32,0,0,1,212.83,67.35ZM105,64.71a2.2,2.2,0,0,1,1-3h0a2.24,2.24,0,0,1,3,1h0a2.22,2.22,0,0,1-1.05,3h0a2.17,2.17,0,0,1-1,.22h0A2.21,2.21,0,0,1,105,64.71ZM203,62.78a2.19,2.19,0,0,1-1.22-2.88h0a2.22,2.22,0,0,1,2.89-1.22h0a2.22,2.22,0,0,1,1.21,2.89h0a2.22,2.22,0,0,1-2,1.38h0A2.2,2.2,0,0,1,203,62.78Zm-87.83-2.6a2.23,2.23,0,0,1,1.31-2.85h0a2.22,2.22,0,0,1,2.84,1.31h0a2.2,2.2,0,0,1-1.3,2.85h0a2.32,2.32,0,0,1-.77.14h0A2.21,2.21,0,0,1,115.14,60.18Zm77.58-1h0a2.22,2.22,0,0,1-1.49-2.77h0A2.22,2.22,0,0,1,194,54.93h0a2.21,2.21,0,0,1,1.48,2.76h0a2.21,2.21,0,0,1-2.12,1.57h0A2,2,0,0,1,192.72,59.17Zm-67.1-2.55a2.22,2.22,0,0,1,1.57-2.71h0a2.21,2.21,0,0,1,2.72,1.56h0a2.21,2.21,0,0,1-1.57,2.71h0a1.83,1.83,0,0,1-.57.08h0A2.21,2.21,0,0,1,125.62,56.62Zm56.56-.1a2.24,2.24,0,0,1-1.74-2.61h0a2.23,2.23,0,0,1,2.62-1.73h0a2.21,2.21,0,0,1,1.73,2.6h0a2.21,2.21,0,0,1-2.16,1.79h0A3.26,3.26,0,0,1,182.18,56.52ZM136.4,54.05a2.21,2.21,0,0,1,1.8-2.56h0a2.22,2.22,0,0,1,2.56,1.82h0A2.2,2.2,0,0,1,139,55.86h0l-.37,0h0A2.21,2.21,0,0,1,136.4,54.05Zm35,.81a2.21,2.21,0,0,1-2-2.44h0a2.23,2.23,0,0,1,2.43-2h0a2.23,2.23,0,0,1,2,2.44h0a2.23,2.23,0,0,1-2.21,2h-.23Zm-24.1-2.37a2.22,2.22,0,0,1,2-2.37h0a2.2,2.2,0,0,1,2.38,2h0a2.22,2.22,0,0,1-2,2.38h-.18A2.23,2.23,0,0,1,147.35,52.49Zm13.24,1.71h0A2.2,2.2,0,0,1,158.42,52h0a2.19,2.19,0,0,1,2.24-2.18h0A2.21,2.21,0,0,1,162.85,52h0a2.23,2.23,0,0,1-2.21,2.19h0Z" transform="translate(-37.14 -46.1)"/><path class="cls-3" d="M377.5,443.49A1.52,1.52,0,0,1,376,442h0a1.52,1.52,0,0,1,1.53-1.5h0A1.5,1.5,0,0,1,379,442h0a1.53,1.53,0,0,1-1.52,1.52h0Zm6.08-1.71a1.52,1.52,0,0,1,1.38-1.64h0a1.53,1.53,0,0,1,1.65,1.39h0a1.51,1.51,0,0,1-1.38,1.64h-.14A1.53,1.53,0,0,1,383.58,441.78Zm-13.8,1.31h0a1.51,1.51,0,0,1-1.37-1.66h0a1.51,1.51,0,0,1,1.66-1.36h0a1.52,1.52,0,0,1,1.37,1.65h0a1.53,1.53,0,0,1-1.52,1.38h-.14Zm21.35-2.17a1.53,1.53,0,0,1,1.22-1.77h0a1.52,1.52,0,0,1,1.77,1.23h0a1.52,1.52,0,0,1-1.23,1.77h0a1.09,1.09,0,0,1-.26,0h0A1.53,1.53,0,0,1,391.13,440.92Zm-29,1.07h0a1.52,1.52,0,0,1-1.2-1.78h0a1.51,1.51,0,0,1,1.77-1.21h0a1.53,1.53,0,0,1,1.21,1.78h0a1.53,1.53,0,0,1-1.49,1.24h0A1.43,1.43,0,0,1,362.12,442Zm36.44-2.63a1.53,1.53,0,0,1,1.06-1.88h0a1.52,1.52,0,0,1,1.87,1.06h0a1.53,1.53,0,0,1-1.05,1.88h0a1.92,1.92,0,0,1-.41.05h0A1.53,1.53,0,0,1,398.56,439.36Zm-44,.82a1.52,1.52,0,0,1-1-1.88h0a1.52,1.52,0,0,1,1.88-1h0a1.53,1.53,0,0,1,1,1.89h0a1.52,1.52,0,0,1-1.46,1.09h0A1.22,1.22,0,0,1,354.6,440.18Zm51.22-3.07a1.52,1.52,0,0,1,.87-2h0a1.52,1.52,0,0,1,2,.87h0a1.52,1.52,0,0,1-.88,2h0a1.45,1.45,0,0,1-.54.11h0A1.52,1.52,0,0,1,405.82,437.11Zm-58.55.57h0a1.53,1.53,0,0,1-.85-2h0a1.52,1.52,0,0,1,2-.85h0a1.53,1.53,0,0,1,.86,2h0a1.53,1.53,0,0,1-1.42,1h0A1.59,1.59,0,0,1,347.27,437.68Zm65.57-3.48a1.51,1.51,0,0,1,.69-2h0a1.51,1.51,0,0,1,2,.69h0a1.51,1.51,0,0,1-.69,2h0a1.5,1.5,0,0,1-.67.16h0A1.51,1.51,0,0,1,412.84,434.2Zm-72.62.3a1.52,1.52,0,0,1-.67-2h0a1.52,1.52,0,0,1,2-.67h0a1.52,1.52,0,0,1,.67,2h0a1.51,1.51,0,0,1-1.36.84h0A1.4,1.4,0,0,1,340.22,434.5Zm79.33-3.86a1.52,1.52,0,0,1,.5-2.09h0a1.52,1.52,0,0,1,2.09.5h0a1.53,1.53,0,0,1-.5,2.09h0a1.55,1.55,0,0,1-.79.22h0A1.52,1.52,0,0,1,419.55,430.64Zm-86.07.05h0a1.53,1.53,0,0,1-.47-2.1h0a1.51,1.51,0,0,1,2.09-.48h0a1.52,1.52,0,0,1,.48,2.1h0a1.51,1.51,0,0,1-1.28.71h0A1.55,1.55,0,0,1,333.48,430.69Zm92.42-4.21a1.53,1.53,0,0,1,.31-2.13h0a1.52,1.52,0,0,1,2.12.3h0a1.52,1.52,0,0,1-.29,2.13h0a1.51,1.51,0,0,1-.92.3h0A1.56,1.56,0,0,1,425.9,426.48Zm-98.76-.22h0a1.52,1.52,0,0,1-.28-2.13h0a1.51,1.51,0,0,1,2.12-.28h0a1.52,1.52,0,0,1,.29,2.13h0a1.54,1.54,0,0,1-1.21.6h0A1.45,1.45,0,0,1,327.14,426.26Zm104.71-4.51a1.53,1.53,0,0,1,.1-2.15h0a1.53,1.53,0,0,1,2.15.1h0a1.53,1.53,0,0,1-.1,2.15h0a1.53,1.53,0,0,1-1,.39h0A1.51,1.51,0,0,1,431.85,421.75Zm-110.63-.48h0a1.52,1.52,0,0,1-.08-2.14h0a1.52,1.52,0,0,1,2.15-.09h0a1.52,1.52,0,0,1,.09,2.15h0a1.56,1.56,0,0,1-1.12.49h0A1.54,1.54,0,0,1,321.22,421.27Zm116.11-4.78a1.53,1.53,0,0,1-.09-2.15h0a1.51,1.51,0,0,1,2.14-.09h0a1.5,1.5,0,0,1,.1,2.14h0a1.5,1.5,0,0,1-1.12.49h0A1.49,1.49,0,0,1,437.33,416.49Zm-121.53-.73a1.52,1.52,0,0,1,.11-2.14h0a1.51,1.51,0,0,1,2.14.11h0a1.51,1.51,0,0,1-.11,2.14h0a1.48,1.48,0,0,1-1,.4h0A1.51,1.51,0,0,1,315.8,415.76Zm126.51-5a1.53,1.53,0,0,1-.29-2.14h0a1.52,1.52,0,0,1,2.13-.28h0a1.51,1.51,0,0,1,.29,2.12h0a1.5,1.5,0,0,1-1.21.6h0A1.49,1.49,0,0,1,442.31,410.75Zm-131.41-1h0a1.52,1.52,0,0,1,.31-2.13h0a1.51,1.51,0,0,1,2.12.32h0a1.51,1.51,0,0,1-.31,2.13h0a1.47,1.47,0,0,1-.9.31h0A1.52,1.52,0,0,1,310.9,409.77Zm135.83-5.2a1.52,1.52,0,0,1-.47-2.09h0a1.52,1.52,0,0,1,2.09-.48h0a1.52,1.52,0,0,1,.48,2.09h0a1.5,1.5,0,0,1-1.29.72h0A1.63,1.63,0,0,1,446.73,404.57Zm-140.16-1.21h0a1.55,1.55,0,0,1,.51-2.1h0a1.54,1.54,0,0,1,2.09.51h0a1.53,1.53,0,0,1-.51,2.09h0a1.41,1.41,0,0,1-.79.22h0A1.52,1.52,0,0,1,306.57,403.36Zm144-5.35a1.52,1.52,0,0,1-.67-2h0a1.52,1.52,0,0,1,2-.68h0a1.53,1.53,0,0,1,.69,2h0a1.54,1.54,0,0,1-1.36.83h0A1.52,1.52,0,0,1,450.57,398Zm-147.71-1.44a1.51,1.51,0,0,1,.7-2h0a1.52,1.52,0,0,1,2,.7h0a1.52,1.52,0,0,1-.7,2h0a1.55,1.55,0,0,1-.66.15h0A1.52,1.52,0,0,1,302.86,396.57Zm150.93-5.44a1.53,1.53,0,0,1-.87-2h0a1.52,1.52,0,0,1,2-.87h0a1.53,1.53,0,0,1,.87,2h0a1.53,1.53,0,0,1-1.42,1h0A1.71,1.71,0,0,1,453.79,391.13Zm-154-1.66h0a1.51,1.51,0,0,1,.88-2h0a1.52,1.52,0,0,1,2,.88h0a1.52,1.52,0,0,1-.89,2h0a1.42,1.42,0,0,1-.53.1h0A1.53,1.53,0,0,1,299.79,389.47ZM456.34,384a1.54,1.54,0,0,1-1-1.88h0a1.52,1.52,0,0,1,1.88-1h0a1.52,1.52,0,0,1,1.05,1.87h0a1.52,1.52,0,0,1-1.46,1.11h0A1.52,1.52,0,0,1,456.34,384ZM297.4,382.1a1.51,1.51,0,0,1,1.07-1.86h0a1.52,1.52,0,0,1,1.87,1.07h0a1.52,1.52,0,0,1-1.07,1.86h0a1.39,1.39,0,0,1-.4.06h0A1.53,1.53,0,0,1,297.4,382.1Zm160.82-5.49a1.51,1.51,0,0,1-1.22-1.77h0a1.53,1.53,0,0,1,1.78-1.22h0a1.52,1.52,0,0,1,1.21,1.77h0a1.52,1.52,0,0,1-1.5,1.24h0Zm-162.51-2.05h0A1.51,1.51,0,0,1,297,372.8h0A1.5,1.5,0,0,1,298.7,374h0a1.51,1.51,0,0,1-1.23,1.76h0l-.26,0h0A1.53,1.53,0,0,1,295.71,374.56Zm163.69-5.45a1.54,1.54,0,0,1-1.38-1.66h0a1.52,1.52,0,0,1,1.66-1.38h0a1.53,1.53,0,0,1,1.38,1.65h0a1.53,1.53,0,0,1-1.52,1.38h-.14Zm-164.67-2.22h0a1.53,1.53,0,0,1,1.4-1.65h0a1.52,1.52,0,0,1,1.63,1.4h0a1.52,1.52,0,0,1-1.39,1.64h-.12A1.51,1.51,0,0,1,294.73,366.89ZM458.36,360a1.52,1.52,0,0,1,1.52-1.52h0A1.51,1.51,0,0,1,461.4,360h0a1.51,1.51,0,0,1-1.52,1.51h0A1.52,1.52,0,0,1,458.36,360ZM296,360.69a1.52,1.52,0,0,1-1.5-1.53h0a1.52,1.52,0,0,1,1.53-1.51h0a1.52,1.52,0,0,1,1.51,1.54h0a1.52,1.52,0,0,1-1.52,1.5h0Zm162.21-6.5a1.51,1.51,0,0,1,1.4-1.62h0a1.52,1.52,0,0,1,1.63,1.4h0a1.51,1.51,0,0,1-1.4,1.62h-.12A1.52,1.52,0,0,1,458.16,354.19ZM296.24,353.1a1.52,1.52,0,0,1-1.36-1.67h0a1.53,1.53,0,0,1,1.67-1.36h0a1.53,1.53,0,0,1,1.36,1.67h0a1.54,1.54,0,0,1-1.52,1.37h-.15Zm161-6.32a1.53,1.53,0,0,1,1.26-1.75h0a1.53,1.53,0,0,1,1.75,1.26h0A1.53,1.53,0,0,1,459,348h0l-.25,0h0A1.53,1.53,0,0,1,457.28,346.78Zm-160.06-1.21a1.52,1.52,0,0,1-1.2-1.79h0a1.52,1.52,0,0,1,1.79-1.19h0a1.52,1.52,0,0,1,1.2,1.78h0a1.53,1.53,0,0,1-1.49,1.23h0Zm158.51-6.08a1.51,1.51,0,0,1,1.08-1.85h0a1.52,1.52,0,0,1,1.86,1.09h0a1.52,1.52,0,0,1-1.09,1.85h0a1.74,1.74,0,0,1-.39.05h0A1.51,1.51,0,0,1,455.73,339.49Zm-156.84-1.33a1.52,1.52,0,0,1-1-1.89h0a1.52,1.52,0,0,1,1.89-1h0a1.52,1.52,0,0,1,1,1.89h0a1.54,1.54,0,0,1-1.46,1.09h0A1.67,1.67,0,0,1,298.89,338.16Zm154.61-5.77h0a1.53,1.53,0,0,1,.9-2h0a1.53,1.53,0,0,1,2,.91h0a1.52,1.52,0,0,1-.9,2h0a1.58,1.58,0,0,1-.52.09h0A1.53,1.53,0,0,1,453.5,332.39Zm-152.24-1.45a1.52,1.52,0,0,1-.85-2h0a1.51,1.51,0,0,1,2-.84h0a1.5,1.5,0,0,1,.85,2h0a1.52,1.52,0,0,1-1.41,1h0A1.54,1.54,0,0,1,301.26,330.94Zm149.36-5.43a1.5,1.5,0,0,1,.71-2h0a1.52,1.52,0,0,1,2,.72h0a1.51,1.51,0,0,1-.72,2h0a1.51,1.51,0,0,1-.65.15h0A1.51,1.51,0,0,1,450.62,325.51Zm-3.51-6.58a1.5,1.5,0,0,1,.53-2.08h0a1.53,1.53,0,0,1,2.08.53h0a1.53,1.53,0,0,1-.53,2.09h0a1.55,1.55,0,0,1-.78.21h0A1.51,1.51,0,0,1,447.11,318.93ZM443,312.71h0a1.51,1.51,0,0,1,.34-2.12h0a1.51,1.51,0,0,1,2.12.33h0a1.52,1.52,0,0,1-.34,2.12h0a1.47,1.47,0,0,1-.89.3h0A1.52,1.52,0,0,1,443,312.71Zm-4.66-5.82h0a1.51,1.51,0,0,1,.14-2.14h0a1.52,1.52,0,0,1,2.14.14h0a1.51,1.51,0,0,1-.13,2.14h0a1.55,1.55,0,0,1-1,.38h0A1.49,1.49,0,0,1,438.34,306.89Zm-5.18-5.36h0a1.52,1.52,0,0,1-.06-2.15h0a1.52,1.52,0,0,1,2.15-.06h0a1.52,1.52,0,0,1,.06,2.15h0a1.55,1.55,0,0,1-1.11.47h0A1.56,1.56,0,0,1,433.16,301.53Zm-5.65-4.87a1.52,1.52,0,0,1-.26-2.13h0a1.51,1.51,0,0,1,2.13-.26h0a1.53,1.53,0,0,1,.26,2.14h0a1.53,1.53,0,0,1-1.2.57h0A1.51,1.51,0,0,1,427.51,296.66Zm-99.33-1.81a1.52,1.52,0,0,1,.32-2.13h0a1.52,1.52,0,0,1,2.13.33h0a1.52,1.52,0,0,1-.33,2.12h0a1.52,1.52,0,0,1-.9.3h0A1.52,1.52,0,0,1,328.18,294.85Zm93.26-2.51a1.53,1.53,0,0,1-.46-2.11h0a1.53,1.53,0,0,1,2.1-.45h0a1.52,1.52,0,0,1,.46,2.1h0a1.54,1.54,0,0,1-1.28.7h0A1.53,1.53,0,0,1,421.44,292.34Zm-87-1.83a1.51,1.51,0,0,1,.52-2.08h0A1.51,1.51,0,0,1,337,289h0a1.53,1.53,0,0,1-.52,2.09h0a1.55,1.55,0,0,1-.78.21h0A1.5,1.5,0,0,1,334.42,290.51ZM415,288.59a1.52,1.52,0,0,1-.65-2h0a1.53,1.53,0,0,1,2.05-.65h0A1.53,1.53,0,0,1,417,288h0a1.55,1.55,0,0,1-1.35.82h0A1.46,1.46,0,0,1,415,288.59Zm-74-1.81a1.53,1.53,0,0,1,.72-2h0a1.54,1.54,0,0,1,2,.71h0a1.54,1.54,0,0,1-.72,2h0a1.39,1.39,0,0,1-.66.15h0A1.54,1.54,0,0,1,341,286.78Zm67.19-1.32a1.51,1.51,0,0,1-.83-2h0a1.52,1.52,0,0,1,2-.83h0a1.51,1.51,0,0,1,.83,2h0a1.52,1.52,0,0,1-1.41.94h0A1.44,1.44,0,0,1,408.22,285.46ZM348,283.67a1.54,1.54,0,0,1,.9-1.95h0a1.51,1.51,0,0,1,1.95.9h0a1.5,1.5,0,0,1-.89,1.95h0a1.42,1.42,0,0,1-.53.1h0A1.53,1.53,0,0,1,348,283.67Zm53.23-.69h0a1.53,1.53,0,0,1-1-1.9h0a1.53,1.53,0,0,1,1.9-1h0a1.51,1.51,0,0,1,1,1.89h0a1.49,1.49,0,0,1-1.45,1.08h0A1.37,1.37,0,0,1,401.19,283Zm-46-1.75a1.52,1.52,0,0,1,1.08-1.86h0a1.52,1.52,0,0,1,1.87,1.07h0a1.54,1.54,0,0,1-1.08,1.87h0a1.75,1.75,0,0,1-.4.05h0A1.53,1.53,0,0,1,355.15,281.23Zm38.81-.06a1.54,1.54,0,0,1-1.19-1.8h0a1.52,1.52,0,0,1,1.79-1.18h0a1.51,1.51,0,0,1,1.19,1.78h0a1.52,1.52,0,0,1-1.48,1.23h0A3,3,0,0,1,394,281.17Zm-31.41-1.7a1.51,1.51,0,0,1,1.24-1.75h0a1.51,1.51,0,0,1,1.75,1.24h0a1.5,1.5,0,0,1-1.24,1.75h0l-.25,0h0A1.51,1.51,0,0,1,362.55,279.47Zm24.05.56a1.52,1.52,0,0,1-1.35-1.68h0a1.52,1.52,0,0,1,1.67-1.35h0a1.52,1.52,0,0,1,1.35,1.67h0a1.51,1.51,0,0,1-1.51,1.36h-.16Zm-16.53-1.63a1.52,1.52,0,0,1,1.4-1.63h0a1.52,1.52,0,0,1,1.63,1.4h0a1.53,1.53,0,0,1-1.4,1.64h-.12A1.52,1.52,0,0,1,370.07,278.4Zm9.08,1.17h0a1.51,1.51,0,0,1-1.5-1.54h0a1.5,1.5,0,0,1,1.54-1.49h0a1.51,1.51,0,0,1,1.5,1.54h0a1.52,1.52,0,0,1-1.52,1.5h0Z" transform="translate(-37.14 -46.1)"/><path class="cls-4" d="M255.84,172.44c-3.65,2.69-5.36,7.41-8.25,11.71s-1.68,3.54-4.09,4.27-3.13-2.07-6.2-6.12-1.5-3.62-3-7.29-4.75-4.84-5.08-7.23-2.05-1.65-4.78-3.7-3.4,1.1-7,3-3.21,1.11-4.31-2.5-5.41-6.5-7.06-4.16-.25,10.33-2.38,15.85a41.57,41.57,0,0,0-3,15c-.14,5.16-2,7.9-5.67,11.78s-4.11,5-8.14,7.34a9.71,9.71,0,0,1-10.52-.64c-2.34-1.72-2.47-12-2.32-18s1.05-2.36.73-5.55-2.47-12-4.43-12.89-6.3-2.49-7.4-6.16-4.66-4.43-9.05-3.75-7.25-1-8.54-5-1.09-6.79,4.76-7.43,6.17-3,9.79-4.92,4.85-3.05,5.36-7.42-1.53-2.42-5-4.5-5.51-2.13-9.51-6.21-.57-4-2.08-6.81-4.36-4.59-5.09-7-.24-2.59,3.06-4.09,6.73-1.92,10.74-3.14,5.66-3.7,13.15-1.16,14.26,2,15.49.39,7.19-1,11.14-.06,9.93.25,9.93.25,2.42-1.13,5.62-2.24,2.85-2.31,4.94-6.63,2.89-3.8,2.89-3.8,2.33-.31,5.14-.63a103.07,103.07,0,0,0-21.14-14c-2.12.07-6.8,2.06-10.14,2.2a22.77,22.77,0,0,1-10.75-2c-3.54-1.66-9.24-1.9-12.21-.52s-9.21,2-11.39,3.68-8.52,2.39-13.24.18-9,.42-13.63,2S125.5,87.43,120.44,86c-3.77-1.06-6.71-4.39-6.83-7.11a103,103,0,0,0-25,17.18c1.44,2.08,3.56,4,6.07,3,4.82-1.87,8.82-2.77,9.13.52s-1.32,5.24,2.6,7.33,4.64,4.89,8.52,9,7.07,3.36,7.39,6.15S123,126.49,119,130s-4.84,2.66-8.83,3.36-7.59,1.39-10,3.71-2.89,4.3-5.72,6.22-4.33-1.7-5.66,3.43,2.22,6.42-3.78,7.86-8.35.18-8.46,4.55.66,5.19,5.43,5.31,5.59-1.05,6.29,2.54,1.85,5.62,6.61,5.74,4.42-1.48,9.94.26,8.37-1,11.52.29,4.37-.07,9.52.75c3.53.56,9.77,4.6,11.47,5.51-1.13-1.25-1.86-1.91-1.24-1.38,1.84,1.55,2,1.79,1.24,1.38,2.25,2.49,6.09,7.33,4,9.89-7.8,9.74-11.43,11.63-12.38,17.57s.58,8.37.08,12.33-3.37,7.46-5.45,11-2.49,4.31-2.18,7.5,3.07,4.45-2.57,7.49-6.91,5.78-7,8.16-7.48-3-5.34-8.88,4.61-9.42.32-12.31-4.2-6.87-9.74-8.2-7.95.19-7.85-3.78-2.22-6.24-1.31-11,5-9.2,3.13-13.22-5.52-2.13-5.36-8.09.21-8.34-3.36-8.43-4,2.28-8.8,1.76-4.41,1.48-6.3-2.15-1.07-4.74-4.17-8-1-7.61.29-11.15,1.92-7.51-1.42-12a33.43,33.43,0,0,0-2.62-3.12,103.09,103.09,0,0,0,55.62,119.76c.62-.85,1.34-1.48,2-1.37,1.79.27,7-2.15,10.58-2.36a22.65,22.65,0,0,1,10.78,1.78c3.57,1.6,9.27,1.74,12.23.31s9.16-2.16,11.31-3.87,8.49-2.53,13.24-.4,9-.58,13.59-2.26,7.59-2.81,12.67-1.48c3.7,1,6.63,4.11,6.93,6.79a102.94,102.94,0,0,0,53.46-87.68c.05-2.05,0-4.08,0-6.11C260,169.72,258.08,170.79,255.84,172.44ZM137.5,105c-4,2.26-1.59,0-9.93-.24s-3.57-.49-6.83,2.61-4.56-.56-6.68-3c-3.68-4.16,1.4-7.91,4.58-8.23s3.63-1.89,8.06-3.93,6.35.33,9.93.25,2.68,3.81,6.65,4.31,5.6-1.36,7.45,3.85-.85,2.29-3.95,2.21S141.53,102.71,137.5,105Z" transform="translate(-37.14 -46.1)"/><path class="cls-5" d="M61.92,148c3.34,4.46,2.7,8.42,1.42,12s-3.39,7.86-.29,11.15,2.27,4.4,4.17,8,1.54,1.63,6.3,2.15,5.22-1.86,8.8-1.76S85.83,182,85.68,188,89.15,192,91,196s-2.21,8.48-3.13,13.22,1.41,7,1.31,11,2.32,2.44,7.85,3.78,5.44,5.3,9.74,8.2,1.82,6.4-.32,12.31,5.28,11.27,5.34,8.88,1.32-5.13,7-8.16,2.89-4.3,2.57-7.49.11-4,2.18-7.5,5-7,5.45-11-1-6.39-.08-12.33,4.58-7.83,12.38-17.57c2-2.56-1.79-7.4-4-9.89-1.7-.91-7.94-5-11.47-5.51-5.15-.82-6.37.52-9.52-.75s-6,1.44-11.52-.29-5.17-.14-9.94-.26-5.9-2.14-6.61-5.74-1.52-2.42-6.29-2.54-5.54-.94-5.43-5.31,2.46-3.12,8.46-4.55,2.46-2.72,3.78-7.86,2.82-1.52,5.66-3.43,3.28-3.89,5.72-6.22,6-3,10-3.71,4.76.12,8.83-3.36,3.71-5.07,3.38-7.86S118.83,120,115,116s-4.6-6.88-8.52-9-2.28-4-2.6-7.33-4.31-2.39-9.13-.52c-2.51,1-4.63-1-6.07-3A102.81,102.81,0,0,0,59.3,144.86,33.43,33.43,0,0,1,61.92,148Z" transform="translate(-37.14 -46.1)"/><path class="cls-5" d="M150.73,100.64c-1.85-5.21-3.49-3.35-7.45-3.85s-3.07-4.38-6.65-4.31-5.51-2.29-9.93-.25-4.87,3.62-8.06,3.93-8.26,4.07-4.58,8.23c2.12,2.4,3.42,6,6.68,3s-1.51-2.83,6.83-2.61,5.9,2.5,9.93.24,6.17-2.21,9.28-2.13S152.59,105.86,150.73,100.64Z" transform="translate(-37.14 -46.1)"/><path class="cls-5" d="M225.63,93.08c-2.81.32-5.14.63-5.14.63s-.78-.52-2.89,3.8-1.73,5.52-4.94,6.63-5.62,2.24-5.62,2.24-6,.64-9.93-.25-9.9-1.54-11.14.06-8,2.14-15.49-.39-9.14-.06-13.15,1.16-7.44,1.63-10.74,3.14-3.79,1.68-3.06,4.09,3.57,4.17,5.09,7-1.91,2.74,2.08,6.81,6,4.13,9.51,6.21,5.56.14,5,4.5-1.73,5.53-5.36,7.42-3.93,4.27-9.79,4.92-6.05,3.42-4.76,7.43,4.15,5.67,8.54,5,8,.08,9.05,3.75,5.43,5.26,7.4,6.16,4.12,9.7,4.43,12.89-.57-.41-.73,5.55,0,16.25,2.32,18a9.71,9.71,0,0,0,10.52.64c4-2.29,4.46-3.46,8.14-7.34s5.53-6.62,5.67-11.78a41.57,41.57,0,0,1,3-15c2.13-5.52.73-13.5,2.38-15.85s6,.55,7.06,4.16.69,4.39,4.31,2.5,4.3-5.06,7-3,4.44,1.31,4.78,3.7,3.59,3.56,5.08,7.23-.08,3.23,3,7.29,3.8,6.85,6.2,6.12,1.19,0,4.09-4.27,4.6-9,8.25-11.71c2.24-1.65,4.16-2.72,5.89-4.47A102.79,102.79,0,0,0,225.63,93.08Z" transform="translate(-37.14 -46.1)"/><path class="cls-5" d="M201.37,255c-5.08-1.33-8.12-.21-12.67,1.48s-8.83,4.4-13.59,2.26-11.09-1.31-13.24.4-8.36,2.45-11.31,3.87-8.66,1.29-12.23-.31a22.65,22.65,0,0,0-10.78-1.78c-3.61.21-8.79,2.63-10.58,2.36-.71-.11-1.43.52-2,1.37a103.09,103.09,0,0,0,93.38-2.86C208,259.08,205.07,255.94,201.37,255Z" transform="translate(-37.14 -46.1)"/><path class="cls-5" d="M120.44,86c5.06,1.42,8.11.34,12.69-1.27s8.91-4.25,13.63-2,11.07,1.49,13.24-.18,8.41-2.31,11.39-3.68,8.67-1.14,12.21.52a22.77,22.77,0,0,0,10.75,2c3.34-.14,8-2.13,10.14-2.2a103.15,103.15,0,0,0-90.88-.23C113.73,81.62,116.67,85,120.44,86Z" transform="translate(-37.14 -46.1)"/><path class="cls-6" d="M261.73,168a102.85,102.85,0,1,0,0,6.11C261.81,172,261.79,170,261.73,168Z" transform="translate(-37.14 -46.1)"/><g class="cls-1"><path class="cls-7" d="M349.35,323.87v0a3.36,3.36,0,0,1-.2-.61v-.05a4.35,4.35,0,0,1-.07-.75,5.48,5.48,0,0,1,.05-.57c0-.12,0-.23,0-.35a4.56,4.56,0,0,1,.13-.53c0-.12.05-.23.08-.34a8.64,8.64,0,0,1,.31-.85h0a8.22,8.22,0,0,1,.42-.84v0a9,9,0,0,1,.52-.79h0a5.87,5.87,0,0,1,.6-.72h0a6.08,6.08,0,0,1,.65-.6l0,0a4.65,4.65,0,0,1,.7-.49l37.88-21.87-24-29.39a2.48,2.48,0,0,1-.32-.55h0a2.88,2.88,0,0,1-.19-.67h0a4.35,4.35,0,0,1,0-.73v0c0-.14,0-.29.05-.43s0-.26,0-.4a4.35,4.35,0,0,1,.11-.46c0-.13.06-.27.1-.41a7.72,7.72,0,0,1,.33-.87v0a7.75,7.75,0,0,1,.44-.86h0a7.76,7.76,0,0,1,.57-.84,5.89,5.89,0,0,1,.44-.53l0,0q.22-.24.45-.45l0,0a4.41,4.41,0,0,1,.43-.35l.09-.07c.14-.1.29-.2.43-.28a5,5,0,0,1,.47-.22,3.39,3.39,0,0,1,.41-.15l.29-.07.45,0a1.51,1.51,0,0,1,.3,0l.13,0a1.61,1.61,0,0,1,.49.19l-74-43a1.7,1.7,0,0,0-.49-.18l-.13,0-.13,0a.91.91,0,0,0-.17,0,2.28,2.28,0,0,0-.45,0h-.14a.94.94,0,0,0-.15.06,3.31,3.31,0,0,0-.41.14l-.19.07-.28.15-.27.17-.16.12-.09.06-.06,0-.25.2-.12.11,0,0-.05,0-.18.18-.18.18,0,0,0,0-.1.1-.15.18-.14.18-.05.07-.08.1a2.14,2.14,0,0,0-.13.19l-.13.18-.12.19-.11.18h0l-.11.19c0,.06-.07.12-.1.19s-.07.12-.1.19l-.09.19-.05.11v0l0,.07-.09.22-.09.25c0,.11-.08.21-.11.32h0a3.06,3.06,0,0,0-.1.41,3.84,3.84,0,0,0-.11.46,2.58,2.58,0,0,0,0,.39c0,.14,0,.29-.05.43h0v0c0,.15,0,.29,0,.43a2.91,2.91,0,0,0,0,.31h0c0,.09,0,.17.05.25l.06.21.06.17v0h0s0,.09.05.13,0,.09.08.14a.83.83,0,0,0,.08.12.5.5,0,0,0,.08.12l0,0,24,29.4-37.88,21.87-.27.16-.31.23-.11.09,0,0-.1.08-.21.18-.18.18-.16.16h0l-.15.18-.15.17-.15.18-.13.18h0l-.12.17-.13.18-.12.19-.11.19,0,.06v0l-.06.11c0,.06-.07.12-.1.19a1.74,1.74,0,0,0-.1.19l-.09.19-.07.16v0l0,0-.09.22-.09.24-.1.31a.08.08,0,0,0,0,0,2.09,2.09,0,0,0-.08.34,5.11,5.11,0,0,0-.13.53c0,.12,0,.24,0,.36a3,3,0,0,0-.05.42v.14c0,.12,0,.23,0,.34s0,.21,0,.32,0,.06,0,.1v0s0,.07,0,.11l.06.2.06.18.06.13h0v0l.08.14.07.13.09.11a.39.39,0,0,0,.08.1h0l.1.09.09.09.1.08.11.07,0,0,74,43a1.79,1.79,0,0,1-.43-.35h0A1.66,1.66,0,0,1,349.35,323.87Z" transform="translate(-37.14 -46.1)"/><path class="cls-8" d="M369.5,257a6.49,6.49,0,0,0-1.9,1.74c-1.66,2.17-2.14,5-1.09,6.29l24,29.39-37.88,21.87a7.87,7.87,0,0,0-3.56,6.16c0,2.26,1.61,3.17,3.58,2l38.29-22.11a15.13,15.13,0,0,0,6-7.61c1.2-3.23,1.11-6.28-.25-7.94l-24.2-29.67C371.84,256.31,370.68,256.31,369.5,257Z" transform="translate(-37.14 -46.1)"/></g><path class="cls-8" d="M240.35,55.84a2.79,2.79,0,0,1,1.17-2.56h0l11.88-6.91,0,0,.17-.08.06,0,.05,0,.06,0,.17-.05H254l.09,0,.17,0h.56l.2,0h0l.21.06.13,0,.06,0h0l.23.09.08,0,.06,0,.08,0,.2.11.1,0,202.65,117,.08,0,.15.09.13.09.11.07.1.08.1.07.08.07.05,0h0l0,0,.08.07.08.07.08.07.07.06.08.07a.6.6,0,0,0,.08.08l.09.09.09.09.07.08h0l0,0,.2.22.09.12a3.11,3.11,0,0,1,.23.28l.08.1,0,.05h0l0,0,.08.11.06.08,0,.08.05.08.05.07.05.08.05.08,0,.07.05.08.05.07,0,.05h0v0l0,.09a.56.56,0,0,0,.05.08l0,.09.05.09.06.11,0,.11.06.11.06.13a.61.61,0,0,0,.05.12h0v0l.06.15c0,.06.05.13.08.19l.07.19a2.09,2.09,0,0,1,.08.23l.06.19v.05a2.76,2.76,0,0,1,.08.27c0,.09.05.18.07.28a2.93,2.93,0,0,1,.05.29s0,.06,0,.1v0a1.1,1.1,0,0,0,0,.18c0,.12,0,.23,0,.35s0,.27,0,.4v0L462.41,329a4.41,4.41,0,0,1,0,.52.9.9,0,0,1,0,.16c0,.15-.06.29-.1.43a1.93,1.93,0,0,1-.11.34,3.59,3.59,0,0,1-.17.34c0,.06-.06.14-.1.19l-.1.11-.09.11a1.79,1.79,0,0,1-.43.35l-11.88,6.91h0a2.77,2.77,0,0,1-2.84-.27l-202.65-117a8.75,8.75,0,0,1-4-6.88Z" transform="translate(-37.14 -46.1)"/><path class="cls-9" d="M245.35,58.35c-.74-.42-1.34-.09-1.34.76v.57c0-1.16.83-1.62,1.84-1Z" transform="translate(-37.14 -46.1)"/><path class="cls-5" d="M337.08,261.5c-.55-.31-1-.06-1,.58v.86a2.17,2.17,0,0,0,1,1.72l16.32,9.43c.55.32,1,.06,1-.57v-.87a2.19,2.19,0,0,0-1-1.72Z" transform="translate(-37.14 -46.1)"/><g class="cls-1"><path class="cls-4" d="M251.48,68.92c-1.1-.64-2-.13-2,1.14v1.73a4.34,4.34,0,0,0,2,3.44l15,8.63c1.1.63,2,.12,2-1.15V81a4.41,4.41,0,0,0-2-3.45Z" transform="translate(-37.14 -46.1)"/><path class="cls-10" d="M445.49,173.9a4,4,0,0,1,1.82,3.16l-.05,18.24L244,77.92l0-18.24c0-1.16.83-1.62,1.84-1ZM274.21,86.06a4.37,4.37,0,0,0,2,3.45L439.79,184c1.1.64,2,.13,2-1.14v-1.73a4.34,4.34,0,0,0-2-3.44L276.21,83.19c-1.1-.63-2-.12-2,1.15v1.72M249.48,71.79a4.34,4.34,0,0,0,2,3.44l15,8.63c1.1.63,2,.12,2-1.15V81a4.41,4.41,0,0,0-2-3.45l-14.94-8.62c-1.1-.64-2-.13-2,1.14v1.73" transform="translate(-37.14 -46.1)"/><path class="cls-3" d="M239.9,214.34a8.73,8.73,0,0,0,4,6.88l202.65,117c2.2,1.27,4,.25,4-2.28l.45-158.5a8.77,8.77,0,0,0-4-6.88l-202.66-117c-2.2-1.28-4-.25-4,2.28Zm97.17,50.32a2.17,2.17,0,0,1-1-1.72v-.86c0-.64.45-.89,1-.58l16.32,9.43a2.19,2.19,0,0,1,1,1.72v.87c0,.63-.45.89-1,.57l-16.32-9.43M245,196.55a2.91,2.91,0,0,1-1.33-2.3L244,77.92l0-18.24c0-1.42.6-1.75,1.34-1.33L445.49,173.9a3.22,3.22,0,0,1,1.82,2.58l-.38,135.15c0,.84-.6,1.18-1.33.76L245,196.55" transform="translate(-37.14 -46.1)"/><path class="cls-9" d="M276.21,83.19c-1.1-.63-2-.12-2,1.15v1.72a4.37,4.37,0,0,0,2,3.45L439.79,184c1.1.64,2,.13,2-1.14v-1.73a4.34,4.34,0,0,0-2-3.44Z" transform="translate(-37.14 -46.1)"/><path class="cls-5" d="M244,77.92,447.26,195.3l-.33,116.33c0,.84-.6,1.18-1.33.76L245,196.55a2.91,2.91,0,0,1-1.33-2.3Z" transform="translate(-37.14 -46.1)"/></g><g class="cls-1"><polygon class="cls-11" points="218.11 135.19 229.99 128.12 229.98 126.92 218.1 134 218.11 135.19"/><polygon class="cls-11" points="218.08 131.45 229.96 124.37 229.95 123.18 218.07 130.25 218.08 131.45"/><polygon class="cls-12" points="263.51 160.76 275.39 153.68 229.99 128.12 218.11 135.19 263.51 160.76"/><polygon class="cls-11" points="263.54 163.97 275.42 156.89 275.39 153.68 263.51 160.76 263.54 163.97"/><polygon class="cls-13" points="263.51 160.76 275.39 153.68 275.38 152.49 263.5 159.56 263.51 160.76"/><polygon class="cls-14" points="263.5 159.56 275.38 152.49 229.98 126.92 218.1 134 263.5 159.56"/><polygon class="cls-12" points="263.51 160.76 263.5 159.56 218.1 134 218.11 135.19 263.51 160.76"/><polygon class="cls-12" points="263.48 157.01 275.36 149.94 229.96 124.37 218.08 131.45 263.48 157.01"/><polygon class="cls-11" points="263.5 159.56 275.38 152.49 275.36 149.94 263.48 157.01 263.5 159.56"/><polygon class="cls-14" points="263.47 155.82 275.35 148.74 229.95 123.18 218.07 130.25 263.47 155.82"/><polygon class="cls-12" points="263.48 157.01 263.47 155.82 218.07 130.25 218.08 131.45 263.48 157.01"/><polygon class="cls-13" points="263.48 157.01 275.36 149.94 275.35 148.74 263.47 155.82 263.48 157.01"/><polygon class="cls-11" points="217.63 75.31 229.51 68.23 229.48 64.78 217.6 71.86 217.63 75.31"/><polygon class="cls-12" points="263.04 100.87 274.92 93.8 229.51 68.23 217.63 75.31 263.04 100.87"/><polygon class="cls-11" points="263.47 155.82 275.35 148.74 274.92 93.8 263.04 100.87 263.47 155.82"/><polygon class="cls-13" points="263.04 100.87 274.92 93.8 274.89 90.35 263.01 97.42 263.04 100.87"/><polygon class="cls-14" points="263.01 97.42 274.89 90.35 229.48 64.78 217.6 71.86 263.01 97.42"/><polygon class="cls-12" points="263.04 100.87 263.01 97.42 217.6 71.86 217.63 75.31 263.04 100.87"/><polygon class="cls-11" points="263.01 97.42 274.89 90.35 274.84 83.97 262.96 91.05 263.01 97.42"/><polygon class="cls-12" points="262.96 91.05 274.84 83.97 229.43 58.41 217.55 65.48 262.96 91.05"/><path class="cls-15" d="M256.4,110.57l8.5-5.07,39.24,22c-2.8,1.7-5.47,3.59-8.22,5.36Z" transform="translate(-37.14 -46.1)"/><path class="cls-10" d="M300.07,135.25l-4.15-2.34c2.75-1.77,5.42-3.66,8.22-5.36l4.56,2.57Z" transform="translate(-37.14 -46.1)"/><polygon class="cls-4" points="263.54 163.97 263.51 160.76 218.11 135.19 218.1 134 263.5 159.56 263.48 157.01 218.08 131.45 218.07 130.25 263.47 155.82 263.04 100.87 217.63 75.31 217.6 71.86 263.01 97.42 262.96 91.05 217.55 65.48 218.13 138.4 263.54 163.97"/></g><g class="cls-1"><polygon class="cls-11" points="268.86 164.5 278.07 159.01 278.06 158.09 268.85 163.58 268.86 164.5"/><polygon class="cls-11" points="268.83 161.6 278.05 156.11 278.04 155.19 268.83 160.67 268.83 161.6"/><polygon class="cls-12" points="304.07 184.32 313.28 178.84 278.07 159.01 268.86 164.5 304.07 184.32"/><polygon class="cls-11" points="304.09 186.81 313.3 181.33 313.28 178.84 304.07 184.32 304.09 186.81"/><polygon class="cls-13" points="304.07 184.32 313.28 178.84 313.27 177.91 304.06 183.4 304.07 184.32"/><polygon class="cls-14" points="304.06 183.4 313.27 177.91 278.06 158.09 268.85 163.58 304.06 183.4"/><polygon class="cls-12" points="304.07 184.32 304.06 183.4 268.85 163.58 268.86 164.5 304.07 184.32"/><polygon class="cls-12" points="304.05 181.42 313.26 175.93 278.05 156.11 268.83 161.6 304.05 181.42"/><polygon class="cls-11" points="304.06 183.4 313.27 177.91 313.26 175.93 304.05 181.42 304.06 183.4"/><polygon class="cls-14" points="304.04 180.5 313.25 175.01 278.04 155.19 268.83 160.67 304.04 180.5"/><polygon class="cls-12" points="304.05 181.42 304.04 180.5 268.83 160.67 268.83 161.6 304.05 181.42"/><polygon class="cls-13" points="304.05 181.42 313.26 175.93 313.25 175.01 304.04 180.5 304.05 181.42"/><polygon class="cls-11" points="268.49 118.06 277.7 112.58 277.68 109.9 268.47 115.39 268.49 118.06"/><polygon class="cls-12" points="303.7 137.89 312.91 132.4 277.7 112.58 268.49 118.06 303.7 137.89"/><polygon class="cls-11" points="304.04 180.5 313.25 175.01 312.91 132.4 303.7 137.89 304.04 180.5"/><polygon class="cls-13" points="303.7 137.89 312.91 132.4 312.89 129.72 303.68 135.21 303.7 137.89"/><polygon class="cls-14" points="303.68 135.21 312.89 129.72 277.68 109.9 268.47 115.39 303.68 135.21"/><polygon class="cls-12" points="303.7 137.89 303.68 135.21 268.47 115.39 268.49 118.06 303.7 137.89"/><polygon class="cls-11" points="303.68 135.21 312.89 129.72 312.85 124.78 303.64 130.27 303.68 135.21"/><polygon class="cls-12" points="303.64 130.27 312.85 124.78 277.64 104.95 268.43 110.44 303.64 130.27"/><path class="cls-15" d="M306.89,155.76l6.59-3.93,30.43,17.1c-2.17,1.31-4.24,2.78-6.37,4.15Z" transform="translate(-37.14 -46.1)"/><path class="cls-10" d="M340.76,174.9l-3.22-1.82c2.13-1.37,4.2-2.84,6.37-4.15l3.54,2Z" transform="translate(-37.14 -46.1)"/><polygon class="cls-4" points="304.09 186.81 304.07 184.32 268.86 164.5 268.85 163.58 304.06 183.4 304.05 181.42 268.83 161.6 268.83 160.67 304.04 180.5 303.7 137.89 268.49 118.06 268.47 115.39 303.68 135.21 303.64 130.27 268.43 110.44 268.88 166.99 304.09 186.81"/></g><polygon class="cls-12" points="221.81 67.88 221.81 112.58 225.96 110.44 229.96 115.49 229.96 72.11 221.81 67.88"/><path class="cls-3" d="M124.53,363.18a1,1,0,0,1-.34-.05A80.78,80.78,0,0,1,98.55,346.5c-11.29-10.88-23.93-30.08-20.09-59.79a.89.89,0,0,1,1-.77.9.9,0,0,1,.77,1c-3.75,29,8.57,47.68,19.56,58.27a78.32,78.32,0,0,0,25,16.23.9.9,0,0,1-.26,1.74Z" transform="translate(-37.14 -46.1)"/><path class="cls-16" d="M74.92,284.06c-5.16-7.72-12.67-21-6.51-24.94,2.86-1.83,6.18,1.05,8.38,6.35.7-5.27,2.48-9.41,6.31-9.78s5.47,4.36,4.76,10.82c2.34-3.1,5-4.93,7.84-3.95,2,.68,2.65,2.6,2.24,5.15C88.05,268,79.14,274.79,74.92,284.06Z" transform="translate(-37.14 -46.1)"/><path class="cls-5" d="M66.44,266.87a25.06,25.06,0,0,1,15.77,7.34,29.37,29.37,0,0,0-7.29,9.85C71.72,279.28,67.63,272.37,66.44,266.87Z" transform="translate(-37.14 -46.1)"/><path class="cls-8" d="M74.92,284.06c4.22-9.27,13.13-16.09,23-16.35-.49,3-2.51,6.89-5.76,10.63a60.1,60.1,0,0,1-10,8.88,4.19,4.19,0,0,1-2.85.76h0a4.15,4.15,0,0,1-3-1.76C75.94,285.57,75.44,284.85,74.92,284.06Z" transform="translate(-37.14 -46.1)"/><path class="cls-3" d="M123.89,363.21a71.48,71.48,0,0,1-26.18-4.32C84.61,354.1,67.4,343,59.83,317.48a.89.89,0,1,1,1.71-.51c5.91,19.92,18.26,33.45,36.72,40.21a70,70,0,0,0,26.17,4.22.85.85,0,0,1,.95.82.89.89,0,0,1-.82,1Z" transform="translate(-37.14 -46.1)"/><path class="cls-16" d="M56.1,316.57c-7-4.42-17.83-12.49-14.25-17.92,1.66-2.52,5.39-1.37,9.09,2.15-1.34-4.54-1.37-8.54,1.61-10.21s6,1.56,7.75,7.07c.78-3.36,2.28-5.8,5-6,1.85-.16,3.09,1.16,3.67,3.38C61,298.78,56.19,307.52,56.1,316.57Z" transform="translate(-37.14 -46.1)"/><path class="cls-5" d="M43,305.65a22.28,22.28,0,0,1,15.44.29,26.39,26.39,0,0,0-2.37,10.63C51.78,313.84,46,309.7,43,305.65Z" transform="translate(-37.14 -46.1)"/><path class="cls-8" d="M56.1,316.57c.09-9.05,4.88-17.79,12.82-21.56.68,2.62.44,6.5-.86,10.71a53.06,53.06,0,0,1-4.89,10.78,3.67,3.67,0,0,1-2,1.65h0a3.74,3.74,0,0,1-3.06-.35C57.47,317.43,56.8,317,56.1,316.57Z" transform="translate(-37.14 -46.1)"/><path class="cls-3" d="M124.53,363.18A.88.88,0,0,1,124,363c-.31-.23-30.45-22.78-14.82-58a.91.91,0,0,1,1.18-.46.89.89,0,0,1,.45,1.18c-15,33.88,14,55.61,14.24,55.83a.88.88,0,0,1,.19,1.24A.87.87,0,0,1,124.53,363.18Z" transform="translate(-37.14 -46.1)"/><path class="cls-16" d="M107.66,302.77c-1.82-5.92-4.1-15.84.59-17.2,2.18-.64,3.76,1.84,4.16,5.66,1.45-3.25,3.38-5.56,5.9-5.06s2.67,3.83,1,7.83c2.08-1.54,4.12-2.21,5.77-1,1.13.81,1.19,2.18.45,3.72C119.13,295,112.13,297.64,107.66,302.77Z" transform="translate(-37.14 -46.1)"/><path class="cls-5" d="M105.51,290.15a16.74,16.74,0,0,1,8.7,7.7,19.73,19.73,0,0,0-6.55,4.92C106.53,299.1,105.23,293.9,105.51,290.15Z" transform="translate(-37.14 -46.1)"/><path class="cls-8" d="M107.66,302.77c4.47-5.13,11.47-7.8,17.86-6.09a15.61,15.61,0,0,1-5.72,5.71,39.9,39.9,0,0,1-8,3.79,2.81,2.81,0,0,1-2-.05h0a2.78,2.78,0,0,1-1.57-1.7C108,303.93,107.85,303.37,107.66,302.77Z" transform="translate(-37.14 -46.1)"/><path class="cls-17" d="M123.89,362.9s-17.19-19-11.21-26.45,17.42,20.5,12.8,27.35-29.15,16.44-30.19,7.06S123.89,362.9,123.89,362.9Z" transform="translate(-37.14 -46.1)"/><g class="cls-1"><polygon class="cls-11" points="174.24 248.92 174.31 274.89 176.25 276.02 176.18 250.04 174.24 248.92"/><polygon class="cls-11" points="180.32 252.45 180.4 278.43 182.33 279.55 182.26 253.58 180.32 252.45"/><polygon class="cls-12" points="89.47 297.86 89.55 323.83 174.31 274.89 174.24 248.92 89.47 297.86"/><polygon class="cls-11" points="84.26 294.83 84.33 320.8 89.55 323.83 89.47 297.86 84.26 294.83"/><polygon class="cls-13" points="89.47 297.86 89.55 323.83 91.48 324.96 91.41 298.99 89.47 297.86"/><polygon class="cls-14" points="91.41 298.99 91.48 324.96 176.25 276.02 176.18 250.04 91.41 298.99"/><polygon class="cls-12" points="89.47 297.86 91.41 298.99 176.18 250.04 174.24 248.92 89.47 297.86"/><polygon class="cls-12" points="95.56 301.39 95.63 327.37 180.4 278.43 180.32 252.45 95.56 301.39"/><polygon class="cls-11" points="91.41 298.99 91.48 324.96 95.63 327.37 95.56 301.39 91.41 298.99"/><polygon class="cls-14" points="97.49 302.52 97.56 328.49 182.33 279.55 182.26 253.58 97.49 302.52"/><polygon class="cls-12" points="95.56 301.39 97.49 302.52 182.26 253.58 180.32 252.45 95.56 301.39"/><polygon class="cls-13" points="95.56 301.39 95.63 327.37 97.56 328.49 97.49 302.52 95.56 301.39"/><polygon class="cls-11" points="271.5 305.44 271.58 331.41 277.18 334.67 277.1 308.7 271.5 305.44"/><polygon class="cls-12" points="186.74 354.38 186.81 380.35 271.58 331.41 271.5 305.44 186.74 354.38"/><polygon class="cls-11" points="97.49 302.52 97.56 328.49 186.81 380.35 186.74 354.38 97.49 302.52"/><polygon class="cls-13" points="186.74 354.38 186.81 380.35 192.41 383.61 192.34 357.64 186.74 354.38"/><polygon class="cls-14" points="192.34 357.64 192.41 383.61 277.18 334.67 277.1 308.7 192.34 357.64"/><polygon class="cls-12" points="186.74 354.38 192.34 357.64 277.1 308.7 271.5 305.44 186.74 354.38"/><polygon class="cls-11" points="192.34 357.64 192.41 383.61 202.77 389.63 202.69 363.66 192.34 357.64"/><polygon class="cls-12" points="202.69 363.66 202.77 389.63 287.54 340.69 287.46 314.72 202.69 363.66"/><path class="cls-18" d="M324.61,364.55l.05,18.6-73.18,42.33c-.06-6.14-.56-12.27-.79-18.41Z" transform="translate(-37.14 -46.1)"/><path class="cls-10" d="M242.92,411.54l7.77-4.47c.23,6.14.73,12.27.79,18.41L243,430.4Z" transform="translate(-37.14 -46.1)"/><polygon class="cls-4" points="84.26 294.83 89.47 297.86 174.24 248.92 176.18 250.04 91.41 298.99 95.56 301.39 180.32 252.45 182.26 253.58 97.49 302.52 186.74 354.38 271.5 305.44 277.1 308.7 192.34 357.64 202.69 363.66 287.46 314.72 169.03 245.89 84.26 294.83"/></g><g class="cls-1"><polygon class="cls-16" points="175.08 214.95 175.15 240.92 177.09 242.05 177.01 216.07 175.08 214.95"/><polygon class="cls-16" points="181.16 218.48 181.23 244.46 183.17 245.58 183.09 219.61 181.16 218.48"/><polygon class="cls-8" points="90.31 263.89 90.38 289.86 175.15 240.92 175.08 214.95 90.31 263.89"/><polygon class="cls-16" points="85.09 260.86 85.17 286.83 90.38 289.86 90.31 263.89 85.09 260.86"/><polygon class="cls-8" points="90.31 263.89 90.38 289.86 92.32 290.99 92.24 265.01 90.31 263.89"/><polygon class="cls-19" points="92.24 265.01 92.32 290.99 177.09 242.05 177.01 216.07 92.24 265.01"/><polygon class="cls-16" points="90.31 263.89 92.24 265.01 177.01 216.07 175.08 214.95 90.31 263.89"/><polygon class="cls-8" points="96.39 267.43 96.46 293.4 181.23 244.46 181.16 218.48 96.39 267.43"/><polygon class="cls-16" points="92.24 265.01 92.32 290.99 96.46 293.4 96.39 267.43 92.24 265.01"/><polygon class="cls-19" points="98.33 268.55 98.4 294.52 183.17 245.58 183.09 219.61 98.33 268.55"/><polygon class="cls-16" points="96.39 267.43 98.33 268.55 183.09 219.61 181.16 218.48 96.39 267.43"/><polygon class="cls-8" points="96.39 267.43 96.46 293.4 98.4 294.52 98.33 268.55 96.39 267.43"/><polygon class="cls-16" points="272.34 271.47 272.41 297.44 278.02 300.7 277.94 274.73 272.34 271.47"/><polygon class="cls-8" points="187.57 320.41 187.64 346.38 272.41 297.44 272.34 271.47 187.57 320.41"/><polygon class="cls-16" points="98.33 268.55 98.4 294.52 187.64 346.38 187.57 320.41 98.33 268.55"/><polygon class="cls-8" points="187.57 320.41 187.64 346.38 193.25 349.64 193.18 323.67 187.57 320.41"/><polygon class="cls-19" points="193.18 323.67 193.25 349.64 278.02 300.7 277.94 274.73 193.18 323.67"/><polygon class="cls-16" points="187.57 320.41 193.18 323.67 277.94 274.73 272.34 271.47 187.57 320.41"/><polygon class="cls-16" points="193.18 323.67 193.25 349.64 203.61 355.66 203.54 329.69 193.18 323.67"/><polygon class="cls-8" points="203.54 329.69 203.61 355.66 288.38 306.72 288.3 280.75 203.54 329.69"/><polygon class="cls-5" points="85.09 260.86 90.31 263.89 175.08 214.95 177.01 216.07 92.24 265.01 96.39 267.43 181.16 218.48 183.09 219.61 98.33 268.55 187.57 320.41 272.34 271.47 277.94 274.73 193.18 323.67 203.54 329.69 288.3 280.75 169.86 211.92 85.09 260.86"/></g><path class="cls-18" d="M325.45,330.58l.06,18.6-73.19,42.33c-.06-6.13-.56-12.27-.78-18.41Z" transform="translate(-37.14 -46.1)"/><path class="cls-10" d="M243.76,377.57l7.78-4.47c.22,6.14.72,12.28.78,18.41l-8.5,4.92Z" transform="translate(-37.14 -46.1)"/><g class="cls-1"><polygon class="cls-11" points="176.28 198.38 176.34 217.23 177.74 218.05 177.69 199.2 176.28 198.38"/><polygon class="cls-11" points="180.7 200.95 180.75 219.8 182.16 220.61 182.1 201.76 180.7 200.95"/><polygon class="cls-12" points="114.77 233.9 114.82 252.75 176.34 217.23 176.28 198.38 114.77 233.9"/><polygon class="cls-11" points="110.98 231.7 111.03 250.55 114.82 252.75 114.77 233.9 110.98 231.7"/><polygon class="cls-13" points="114.77 233.9 114.82 252.75 116.22 253.56 116.17 234.72 114.77 233.9"/><polygon class="cls-14" points="116.17 234.72 116.22 253.56 177.74 218.05 177.69 199.2 116.17 234.72"/><polygon class="cls-12" points="114.77 233.9 116.17 234.72 177.69 199.2 176.28 198.38 114.77 233.9"/><polygon class="cls-12" points="119.18 236.47 119.23 255.31 180.75 219.8 180.7 200.95 119.18 236.47"/><polygon class="cls-11" points="116.17 234.72 116.22 253.56 119.23 255.31 119.18 236.47 116.17 234.72"/><polygon class="cls-14" points="120.58 237.28 120.64 256.13 182.16 220.61 182.1 201.76 120.58 237.28"/><polygon class="cls-12" points="119.18 236.47 120.58 237.28 182.1 201.76 180.7 200.95 119.18 236.47"/><polygon class="cls-13" points="119.18 236.47 119.23 255.31 120.64 256.13 120.58 237.28 119.18 236.47"/><polygon class="cls-11" points="246.87 239.4 246.92 258.25 250.99 260.61 250.94 241.76 246.87 239.4"/><polygon class="cls-12" points="185.35 274.92 185.41 293.77 246.92 258.25 246.87 239.4 185.35 274.92"/><polygon class="cls-11" points="120.58 237.28 120.64 256.13 185.41 293.77 185.35 274.92 120.58 237.28"/><polygon class="cls-13" points="185.35 274.92 185.41 293.77 189.47 296.13 189.42 277.28 185.35 274.92"/><polygon class="cls-14" points="189.42 277.28 189.47 296.13 250.99 260.61 250.94 241.76 189.42 277.28"/><polygon class="cls-12" points="185.35 274.92 189.42 277.28 250.94 241.76 246.87 239.4 185.35 274.92"/><polygon class="cls-11" points="189.42 277.28 189.47 296.13 196.99 300.5 196.93 281.65 189.42 277.28"/><polygon class="cls-12" points="196.93 281.65 196.99 300.5 258.51 264.98 258.45 246.13 196.93 281.65"/><path class="cls-18" d="M295.6,294.94l0,13.5-53.11,30.72c-.05-4.45-.41-8.91-.58-13.36Z" transform="translate(-37.14 -46.1)"/><path class="cls-10" d="M236.31,329.05,242,325.8c.17,4.45.53,8.91.58,13.36l-6.18,3.57Z" transform="translate(-37.14 -46.1)"/><polygon class="cls-4" points="110.98 231.7 114.77 233.9 176.28 198.38 177.69 199.2 116.17 234.72 119.18 236.47 180.7 200.95 182.1 201.76 120.58 237.28 185.35 274.92 246.87 239.4 250.94 241.76 189.42 277.28 196.93 281.65 258.45 246.13 172.5 196.18 110.98 231.7"/></g><g class="cls-1"><polygon class="cls-16" points="176.89 173.73 176.94 192.58 178.35 193.39 178.3 174.55 176.89 173.73"/><polygon class="cls-16" points="181.31 176.29 181.36 195.14 182.76 195.96 182.71 177.11 181.31 176.29"/><polygon class="cls-8" points="115.37 209.25 115.42 228.1 176.94 192.58 176.89 173.73 115.37 209.25"/><polygon class="cls-16" points="111.59 207.05 111.64 225.9 115.42 228.1 115.37 209.25 111.59 207.05"/><polygon class="cls-8" points="115.37 209.25 115.42 228.1 116.83 228.91 116.78 210.06 115.37 209.25"/><polygon class="cls-19" points="116.78 210.06 116.83 228.91 178.35 193.39 178.3 174.55 116.78 210.06"/><polygon class="cls-16" points="115.37 209.25 116.78 210.06 178.3 174.55 176.89 173.73 115.37 209.25"/><polygon class="cls-8" points="119.79 211.81 119.84 230.66 181.36 195.14 181.31 176.29 119.79 211.81"/><polygon class="cls-16" points="116.78 210.06 116.83 228.91 119.84 230.66 119.79 211.81 116.78 210.06"/><polygon class="cls-19" points="121.19 212.63 121.25 231.48 182.76 195.96 182.71 177.11 121.19 212.63"/><polygon class="cls-16" points="119.79 211.81 121.19 212.63 182.71 177.11 181.31 176.29 119.79 211.81"/><polygon class="cls-8" points="119.79 211.81 119.84 230.66 121.25 231.48 121.19 212.63 119.79 211.81"/><polygon class="cls-16" points="247.48 214.75 247.53 233.6 251.6 235.96 251.55 217.11 247.48 214.75"/><polygon class="cls-8" points="185.96 250.27 186.01 269.12 247.53 233.6 247.48 214.75 185.96 250.27"/><polygon class="cls-16" points="121.19 212.63 121.25 231.48 186.01 269.12 185.96 250.27 121.19 212.63"/><polygon class="cls-8" points="185.96 250.27 186.01 269.12 190.08 271.48 190.03 252.63 185.96 250.27"/><polygon class="cls-19" points="190.03 252.63 190.08 271.48 251.6 235.96 251.55 217.11 190.03 252.63"/><polygon class="cls-16" points="185.96 250.27 190.03 252.63 251.55 217.11 247.48 214.75 185.96 250.27"/><polygon class="cls-16" points="190.03 252.63 190.08 271.48 197.6 275.85 197.54 257 190.03 252.63"/><polygon class="cls-8" points="197.54 257 197.6 275.85 259.12 240.33 259.06 221.48 197.54 257"/><polygon class="cls-5" points="111.59 207.05 115.37 209.25 176.89 173.73 178.3 174.55 116.78 210.06 119.79 211.81 181.31 176.29 182.71 177.11 121.19 212.63 185.96 250.27 247.48 214.75 251.55 217.11 190.03 252.63 197.54 257 259.06 221.48 173.1 171.53 111.59 207.05"/></g><path class="cls-18" d="M296.21,270.29l0,13.5-53.11,30.72c0-4.45-.41-8.91-.57-13.36Z" transform="translate(-37.14 -46.1)"/><path class="cls-10" d="M236.92,304.4l5.65-3.25c.16,4.45.52,8.91.57,13.36L237,318.08Z" transform="translate(-37.14 -46.1)"/><circle class="cls-20" cx="340.79" cy="313.91" r="64.47"/><path class="cls-21" d="M396.16,337.86c-12.22-10.61-38.26-10.34-43.39,13.22-2.3,10.51,3.29,19.35,11.64,24.17.66,3.47,2.17,9.62,4.52,10a131.86,131.86,0,0,0,18,0c2.17-.34,3.62-5.64,4.35-9.18a25,25,0,0,0,7.19-6C402.43,365.33,408.74,348.77,396.16,337.86Z" transform="translate(-37.14 -46.1)"/><path class="cls-10" d="M383.49,364.63a1.27,1.27,0,0,0-2.44.67c.53,2.14.1,4.91-2.58,5.09s-3.66-2.64-3.56-4.86c.07-1.63-2.46-1.63-2.53,0-.15,3.4,1.69,6.86,5.12,7.32a1.06,1.06,0,0,0-.06.37v13.13a1.27,1.27,0,0,0,2.53,0V373.22a1.38,1.38,0,0,0-.1-.52C383.25,371.77,384.29,367.91,383.49,364.63Z" transform="translate(-37.14 -46.1)"/><path class="cls-5" d="M389.48,387a2.18,2.18,0,0,1-2.18,2.18H368.81a2.19,2.19,0,0,1-2.18-2.18h0a2.18,2.18,0,0,1,2.18-2.18H387.3a2.17,2.17,0,0,1,2.18,2.18Z" transform="translate(-37.14 -46.1)"/><path class="cls-5" d="M389.48,390.5a2.18,2.18,0,0,1-2.18,2.18H368.81a2.19,2.19,0,0,1-2.18-2.18h0a2.19,2.19,0,0,1,2.18-2.19H387.3a2.18,2.18,0,0,1,2.18,2.19Z" transform="translate(-37.14 -46.1)"/><path class="cls-5" d="M389.48,394a2.17,2.17,0,0,1-2.18,2.18H368.81a2.18,2.18,0,0,1-2.18-2.18h0a2.19,2.19,0,0,1,2.18-2.18H387.3a2.18,2.18,0,0,1,2.18,2.18Z" transform="translate(-37.14 -46.1)"/><path class="cls-5" d="M389.48,397.43a2.18,2.18,0,0,1-2.18,2.18H368.81a2.19,2.19,0,0,1-2.18-2.18h0a2.19,2.19,0,0,1,2.18-2.19H387.3a2.18,2.18,0,0,1,2.18,2.19Z" transform="translate(-37.14 -46.1)"/><path class="cls-5" d="M385.76,396.79a7.7,7.7,0,1,1-7.7-7.71A7.7,7.7,0,0,1,385.76,396.79Z" transform="translate(-37.14 -46.1)"/><path class="cls-4" d="M368.44,327.6l-2.29-5.78a1.55,1.55,0,0,0-2.88,1.15l2.29,5.77A1.55,1.55,0,0,0,368.44,327.6Z" transform="translate(-37.14 -46.1)"/><path class="cls-4" d="M403.17,381.28l-4.17-4.6a1.55,1.55,0,0,0-2.3,2.08l4.18,4.6A1.55,1.55,0,0,0,403.17,381.28Z" transform="translate(-37.14 -46.1)"/><path class="cls-4" d="M359.15,332.73l-4.17-4.6a1.55,1.55,0,0,0-2.3,2.08l4.17,4.6A1.55,1.55,0,0,0,359.15,332.73Z" transform="translate(-37.14 -46.1)"/><path class="cls-4" d="M411.13,369.4l-5.63-2.6a1.55,1.55,0,0,0-1.3,2.81l5.63,2.61A1.55,1.55,0,0,0,411.13,369.4Z" transform="translate(-37.14 -46.1)"/><path class="cls-4" d="M351.66,341.88,346,339.27a1.55,1.55,0,0,0-1.3,2.82l5.63,2.61A1.56,1.56,0,0,0,351.66,341.88Z" transform="translate(-37.14 -46.1)"/><path class="cls-4" d="M413.83,355.36l-6.2-.2a1.55,1.55,0,0,0-.1,3.1l6.2.2A1.55,1.55,0,0,0,413.83,355.36Z" transform="translate(-37.14 -46.1)"/><path class="cls-4" d="M348.33,353.23l-6.21-.2a1.55,1.55,0,0,0-.1,3.1l6.21.2A1.55,1.55,0,0,0,348.33,353.23Z" transform="translate(-37.14 -46.1)"/><path class="cls-4" d="M410.83,341.38,405,343.62a1.55,1.55,0,0,0,1.12,2.89l5.79-2.23A1.56,1.56,0,0,0,410.83,341.38Z" transform="translate(-37.14 -46.1)"/><path class="cls-4" d="M349.69,365l-5.79,2.23a1.56,1.56,0,0,0,1.12,2.9l5.79-2.24A1.55,1.55,0,0,0,349.69,365Z" transform="translate(-37.14 -46.1)"/><path class="cls-4" d="M402.62,329.68,398.16,334a1.55,1.55,0,0,0,2.16,2.23l4.46-4.32A1.55,1.55,0,0,0,402.62,329.68Z" transform="translate(-37.14 -46.1)"/><path class="cls-4" d="M355.53,375.26l-4.46,4.32a1.55,1.55,0,0,0,2.16,2.23l4.46-4.32A1.55,1.55,0,0,0,355.53,375.26Z" transform="translate(-37.14 -46.1)"/><path class="cls-4" d="M377.23,319.85l-.15,6.2a1.55,1.55,0,0,0,3.1.08l.15-6.21A1.55,1.55,0,0,0,377.23,319.85Z" transform="translate(-37.14 -46.1)"/><path class="cls-4" d="M390.49,322.11l-2.42,5.72a1.55,1.55,0,0,0,2.86,1.21l2.42-5.72A1.55,1.55,0,0,0,390.49,322.11Z" transform="translate(-37.14 -46.1)"/><polygon class="cls-16" points="342.85 182.87 342.84 187.28 397.23 218.41 397.24 214 342.85 182.87"/><polygon class="cls-16" points="327.78 166.03 327.76 170.43 397.25 210.28 397.26 205.87 327.78 166.03"/><polygon class="cls-16" points="317.57 151.99 317.56 156.39 397.27 202.15 397.29 197.74 317.57 151.99"/><polygon class="cls-16" points="337.34 146.39 337.32 153.19 397.34 187.57 397.36 180.77 337.34 146.39"/><polygon class="cls-16" points="327.73 182.28 327.72 186.69 397.2 226.53 397.22 222.13 327.73 182.28"/></g></g></svg>