<svg id="OBJECTS" xmlns="http://www.w3.org/2000/svg" viewBox="0 0 694.7 709.02"><defs><style>.cls-1{fill:#b8faff;}.cls-2{fill:#f5c818;}.cls-3{fill:#1bb9c2;}.cls-4{fill:#d65331;}.cls-5{fill:#ad371b;}.cls-6{fill:#fff;}.cls-7{fill:#2199a1;}.cls-8{fill:#fbffea;}.cls-9{fill:#d1fcff;}</style></defs><path class="cls-1" d="M331.33,666.89c-11-3.49-22.14-6.18-33-10A296.28,296.28,0,0,1,267.78,644a311.37,311.37,0,0,1-57.34-36c-35.9-28.49-65.19-64.54-87-104.8C111.09,480.27,101.9,456.25,93,431.82c-1.59-4.35-8.09-2.68-7,1.93,10.67,45.44,34.34,89.1,62.8,125.79,28.65,36.94,64.93,68,106.36,89.77a302.74,302.74,0,0,0,35.77,15.86c12.22,4.52,25,8.89,37.94,10.67C334.62,676.63,337.2,668.75,331.33,666.89Z" transform="translate(-61.92 -0.45)"/><path class="cls-1" d="M697,408.63c6.86,94.88-43.76,190-127.59,237.06C471,700.94,340.82,674.52,246.56,622.85c-194.08-106.38-207-436.1,38.05-485.27a317.38,317.38,0,0,1,55.24-6c47-1.07,91.74,7.9,137.32,17.85,43.82,9.57,90.1,16.73,127.55,43.28C664.89,235.37,691.93,338.83,697,408.63Z" transform="translate(-61.92 -0.45)"/><path class="cls-2" d="M161.46,178.57c-8.53,9.3-19.87,17.44-27.58,27.24-4,5.11-1.85,8.77,0,15.33a203.05,203.05,0,0,0,6.69,20c1.8,4.57,4.55,9.71,9.42,10.37a14.5,14.5,0,0,0,4.1-.22L241.45,238c10.83-1.64,21.68-3.28,32.4-5.57,4.88-1,10.74-1.7,15.23-3.95,2.94-1.47,4.42-3.83,7.94-4.18a224,224,0,0,0-6.74-43.3c-2.6-9.89-11.27-12.87-20.61-15.78-12.77-5.69-26.19-9.55-39.06-15-11.9-5-23.45-10.39-34.21-17.59C199.08,134.43,165.21,174.48,161.46,178.57Z" transform="translate(-61.92 -0.45)"/><path class="cls-3" d="M288.34,230.83q-19,5.49-38.48,9.19c-9.71,1.85-19.49,3.36-29.27,4.87l-66.67,10.3c-1.42-28.48-14.66-55.11-18.44-83.38q34.32-6.56,68.58-13.34c22.38-4.4,45.71-11.23,68.4-13.13C277.38,144.94,293.63,229.31,288.34,230.83Z" transform="translate(-61.92 -0.45)"/><path class="cls-4" d="M290.12,186a2.44,2.44,0,0,1,.67.37,4.51,4.51,0,0,1,1.25,2.73c3.06,15.2,4.49,30.59,6.41,46,1.32,10.63,6,20.58,6.57,31.45-11.79,4.14-25.3,5.59-37.65,7.82-13.93,2.52-27.91,4.81-41.91,7C202.39,284.9,176,292.64,153,292.12c-3.27-10.07-25.94-77.33-18-80.83,3.8-1.68,17.14,3.53,21.39,4.42q11.4,2.4,22.77,4.88c15.19,3.32,29.47,9.21,45.19,10.68a8.38,8.38,0,0,0,3.08-.12,9,9,0,0,0,3.05-2c6.25-5.28,13.68-8.75,20.07-13.59q11.25-8.52,22.72-16.85c5-3.65,9.14-8.47,13.88-12.15A3.35,3.35,0,0,1,290.12,186Z" transform="translate(-61.92 -0.45)"/><path class="cls-5" d="M305.74,262.08q-39.08-17.41-79.6-31.19a2.7,2.7,0,0,0-3.34,1.32,2.84,2.84,0,0,0-1.08.55l-69.27,55.35c-2.81,2.24.74,6.54,3.55,4.3l69.28-55.35a2.78,2.78,0,0,0,.42-.42q39.69,13.58,78,30.65C307,268.75,309,263.54,305.74,262.08Z" transform="translate(-61.92 -0.45)"/><path class="cls-6" d="M178.81,180.4c-7.69-.5-16.4,1.77-23.94,3.19a.76.76,0,0,0,.24,1.51c7.66-.7,16.64-.91,23.9-3.49A.64.64,0,0,0,178.81,180.4Z" transform="translate(-61.92 -0.45)"/><path class="cls-6" d="M261.48,175.65c-9,.43-18.18,3.08-27,4.82l-27,5.3-25.88,5c-8.61,1.69-17.57,2.87-25.91,5.67-.54.18-.21.92.28.89,9.07-.57,18.14-3,27.05-4.71s18-3.54,26.95-5.29l25.88-5c8.58-1.67,17.7-2.65,26-5.56C262.5,176.53,262.09,175.62,261.48,175.65Z" transform="translate(-61.92 -0.45)"/><path class="cls-6" d="M268.64,191.66c-17.35,3.33-34.65,6.92-52,10.44s-34.85,6.37-51.9,10.83a1,1,0,0,0,.31,1.93c17.44-2.52,34.74-6.75,52-10.24S251.74,197.69,269,194C270.51,193.68,270.15,191.37,268.64,191.66Z" transform="translate(-61.92 -0.45)"/><path class="cls-6" d="M244.83,212c-7.84,1.59-15.63,3.45-23.42,5.22-7,1.59-14.72,2.54-21.33,5.45-.6.26-.25,1,.32,1,7.47-.21,15.18-2.75,22.45-4.37,7.46-1.65,14.94-3.22,22.35-5C246.63,214,246.31,211.73,244.83,212Z" transform="translate(-61.92 -0.45)"/><path class="cls-7" d="M589.34,485c-16.83,24.38-53.77,35.83-80,46.75-6,2.49-13.89,2.3-17.07,8.08s-3.13,13.91-2.21,20.23c1.14,7.81,4.1,15.24,7.35,22.43-8.3-.19-15.14-6.12-22.41-10.13a213.05,213.05,0,0,1-19.92-11.92c-6-4.25-10.94-9.8-17-14-2.71-1.87-7-.61-10.85-.2-9.34,1-18.7,1.93-28.07,2.69a506.08,506.08,0,0,1-55.34,1.84C306.59,549.73,269.65,542.45,236,526c-27.71-13.5-62.41-42.79-71.62-73.13-2.13-7-3-14.35-3.68-21.66-7.34-74,51-141.65,119.13-162.48,27.78-8.48,57.16-12.55,86.16-13.25,7.21-.18,14.25-.51,21.19-.82,67.22-3,129,9.29,184.14,50.06,25,18.54,43.21,47,47.74,78C623.73,415,607.65,458.43,589.34,485Z" transform="translate(-61.92 -0.45)"/><path class="cls-3" d="M602.34,475c-16.83,24.38-53.77,35.83-80,46.75-8.78,3.67-22.82,5-27.25,14.06-6.09,12.49-5.34,33.44,2.56,45.21-24.72-6.31-34.85-25.92-47.23-45.86C381,543,314.16,547.81,249,516c-27.71-13.5-62.41-42.79-71.62-73.13-2.13-7-3-14.35-3.68-21.66-7.34-74,51-141.65,119.13-162.48,27.78-8.48,57.16-12.55,86.16-13.25,7.21-.18,14.25-.51,21.19-.82,67.22-3,129,9.29,184.14,50.06,25,18.54,43.21,47,47.74,78C636.73,405,620.65,448.43,602.34,475Z" transform="translate(-61.92 -0.45)"/><path class="cls-8" d="M186.16,587.51l-.85-1.67" transform="translate(-61.92 -0.45)"/><path class="cls-7" d="M264.06,619.4c6.5,51-57,100.31-106.47,80.88-36.35-14.27-55.38-56.8-43.47-93.62,13.4-41.38,65.74-61,105-44.62C243.1,572.05,260.72,593.18,264.06,619.4Z" transform="translate(-61.92 -0.45)"/><path class="cls-3" d="M267.06,613.4c6.5,51-57,100.31-106.47,80.88-36.35-14.27-55.38-56.8-43.47-93.62,13.4-41.38,65.74-61,105-44.62C246.1,566.05,263.72,587.18,267.06,613.4Z" transform="translate(-61.92 -0.45)"/><path class="cls-2" d="M249.06,643.51C232,677.93,176.31,705.36,144.19,673c-18-18.14-23.17-47.05-15.92-71.13,1.85-6.15,4.48-12.15,8.69-16.86,4.75-5.34,11.2-8.72,17.54-11.93,12.54-6.36,25.45-12.58,39.44-14.49s29.44,1.05,40,11.07c6.21,5.88,10.32,13.71,13.48,21.69C254.12,608.12,256.89,627.73,249.06,643.51Z" transform="translate(-61.92 -0.45)"/><path class="cls-4" d="M162,577.26a1.15,1.15,0,0,0-1.8.91c.1,3.23,2.47,6.85,4,9.63a2.46,2.46,0,0,0,2.54,1.29,1.88,1.88,0,0,0,1.46-1,2.35,2.35,0,0,0,.09-2.35C166.7,583,164.69,578.93,162,577.26Z" transform="translate(-61.92 -0.45)"/><path class="cls-4" d="M210.79,661.72c-.91-1.68-1.63-3.91-3.58-4.44a1.46,1.46,0,0,0-1.86.94c-.56,2.11,1,3.9,2.09,5.65s2.28,3.83,4,5.09c.94.7,2-.27,1.84-1.26C213,665.62,211.77,663.55,210.79,661.72Z" transform="translate(-61.92 -0.45)"/><path class="cls-4" d="M150,642.29c-2.34-.28-4.23,1.56-6.11,2.75-2.09,1.33-4.39,2.59-6,4.48-.72.82-.18,2.48,1.09,2.16,2.58-.65,4.84-2.18,7.1-3.53,1.94-1.16,4.23-2,5.07-4.21A1.3,1.3,0,0,0,150,642.29Z" transform="translate(-61.92 -0.45)"/><path class="cls-4" d="M233.62,595.73c-2.91.26-7,3.2-7.63,6.21a1.14,1.14,0,0,0,1.53,1.35A27,27,0,0,0,231,601c1.22-.77,2.6-1.18,3.82-1.93A1.79,1.79,0,0,0,233.62,595.73Z" transform="translate(-61.92 -0.45)"/><path class="cls-4" d="M202.47,613.72c-3.5,1-6.52,3.33-9.64,5.15-1.43.83-2.86,1.67-4.26,2.53a5.41,5.41,0,0,0-3.39-1.78H185l-.26,0a5.76,5.76,0,0,0-1.6.11c-1.47-3.19-3.22-6.26-4.86-9.36-2.22-4.21-3.92-9.46-7.88-12.2a1.19,1.19,0,0,0-1.86.94c.23,4.84,3.67,9,6.07,13.12,1.81,3.13,3.53,6.37,5.52,9.4-2.91,3.91,1.62,10.94,6.71,8.4a5.76,5.76,0,0,0,3.07-5.27c1.79-.92,3.55-1.9,5.32-2.87,2.95-1.6,6.26-2.86,8.72-5.18C205.1,615.62,204.1,613.26,202.47,613.72Z" transform="translate(-61.92 -0.45)"/><path class="cls-4" d="M139.42,623.61c-.85-.84-2-.68-3.06-.56a8.76,8.76,0,0,0-3.52.76,1,1,0,0,0,.15,1.71,8.56,8.56,0,0,0,3.53.15c1.09-.06,2.34,0,3-1A.88.88,0,0,0,139.42,623.61Z" transform="translate(-61.92 -0.45)"/><path class="cls-4" d="M142.85,602.38a7.71,7.71,0,0,0-3.2-1.23c-.69-.11-1,1-.4,1.31a13.29,13.29,0,0,1,2.43,1.8c.67.62,1.32,1.48,2.3,1.34a.69.69,0,0,0,.54-.49C144.9,604,143.7,603,142.85,602.38Z" transform="translate(-61.92 -0.45)"/><path class="cls-4" d="M162.56,661c-.95.73-1.25,2.28-1.56,3.4a16.22,16.22,0,0,0-.76,3.85,1,1,0,0,0,1.71.6,16.24,16.24,0,0,0,1.51-3.59c.37-1.1,1-2.54.62-3.72A.94.94,0,0,0,162.56,661Z" transform="translate(-61.92 -0.45)"/><path class="cls-4" d="M185.77,665.33a8.9,8.9,0,0,0-.37,4.36,9.93,9.93,0,0,0,.83,4.1.88.88,0,0,0,1.63-.1,10,10,0,0,0,.44-4.33,9,9,0,0,0-.79-4.13A1,1,0,0,0,185.77,665.33Z" transform="translate(-61.92 -0.45)"/><path class="cls-4" d="M231.52,641.92a6.94,6.94,0,0,0-3.09-.37c-.94.08-1,1.68-.08,1.9a8.6,8.6,0,0,1,2.57,1.24c.8.5,2.25,1.1,2.63-.18S232.47,642.29,231.52,641.92Z" transform="translate(-61.92 -0.45)"/><path class="cls-4" d="M242.22,619a12.5,12.5,0,0,0-3.4.76c-.94.29-2,.59-2.36,1.63a1,1,0,0,0,.21,1c.79.78,1.8.62,2.81.49a11.93,11.93,0,0,0,3.4-.78C244.23,621.47,243.79,619,242.22,619Z" transform="translate(-61.92 -0.45)"/><path class="cls-4" d="M192.85,569.32c-.92,1.51-1.09,4.15.26,5.55.63.65,2.08.4,2-.7-.06-.74-.31-1.43-.43-2.16a9.46,9.46,0,0,1,0-2.06A1,1,0,0,0,192.85,569.32Z" transform="translate(-61.92 -0.45)"/><path class="cls-4" d="M218,578.25a7.68,7.68,0,0,0-2.58,2.4c-.82,1-1.61,2-2.41,3.05s.78,2.24,1.62,1.41c1.6-1.57,4.11-3.34,4.82-5.58A1.07,1.07,0,0,0,218,578.25Z" transform="translate(-61.92 -0.45)"/><path class="cls-4" d="M497.64,647.2c-58,19.07-124.3,34.52-180.4,1.57A117.09,117.09,0,0,1,287.3,624a97.11,97.11,0,0,1-14.15-21.46,38.82,38.82,0,0,0,12.22-8.11c7-7.08,8.9-18.82,1-26.14-6.82-6.32-16.53-2.92-19.93,5.09-3.7,8.71-1.7,18.19,1.7,26.64a56.41,56.41,0,0,1-5.78,1.92c-29.89,7.86-61.49-3.82-86.93-19.22a247.53,247.53,0,0,1-62.71-54.42c-35.71-43.5-54.24-100.07-44-156.12,5-27.3,16.55-53.61,34.8-74.67C122.71,275.36,148,259.6,174.7,248c29.74-12.9,61.31-20.66,92.58-28.82,16.29-4.25,32.56-8.61,48.55-13.87,13.54-4.46,27.37-9.29,39.35-17.21.94-.63,1.88-1.3,2.81-2a95.49,95.49,0,0,0,43-2.78c21.95-6.73,39.24-23.74,40.13-47.61,1-27.75-17.21-52.48-26.13-77.65-6.7-18.88-7.22-38.63-3.1-57.65h-4.16q-.64,3-1.14,6.17a105.53,105.53,0,0,0,1.32,41.74c3.42,14,9.87,27,15.82,40,11.38,24.85,22.94,56.43-.54,78.35-15.68,14.65-39.65,18.68-60.87,15.91,16.19-14.49,27.25-38.85,12.5-58.07-13.25-17.25-40.32-19.35-54.23-1.91a37.06,37.06,0,0,0-7.68,28.84c1.9,11.31,10,20.3,19.72,25.87a74.26,74.26,0,0,0,20.15,7.78c-14.95,9.82-34,15.36-49.81,20.14-60.2,18.2-126,27.26-177.36,66.33C81.17,305.37,59,359.43,62.22,414.74c3.21,55.13,32.05,105.64,72.43,142.3,20.9,19,45.18,35.67,72,44.87,13.62,4.67,28.18,7.31,42.6,6.14a80.43,80.43,0,0,0,20.53-4.21A101.7,101.7,0,0,0,290.37,633c18,18,42,30,66.77,35.35,30.79,6.69,62.94,3.27,93.23-4.24A390.84,390.84,0,0,0,498,648.64C498.92,648.3,498.57,646.89,497.64,647.2ZM352.37,180.77c-13-3.15-26.8-9.68-33.06-22.25-5.78-11.59-2.65-26.29,6.14-35.51,9.39-9.85,23.93-11.06,35.71-4.87,13.23,7,18.83,21.42,15.32,35.73-2.93,11.95-10,20.94-19.09,28Q354.84,181.37,352.37,180.77ZM269,590.31c-1.08-5.25-1.11-11.57,1.45-16.41,3.13-5.93,10.42-6.79,14.56-1.34,8.79,11.54-2.6,20.93-13.53,26A52.7,52.7,0,0,1,269,590.31Z" transform="translate(-61.92 -0.45)"/><path class="cls-4" d="M637.36,669.13c-22.68,13.57-48.46,22.24-74.12,23.71-29.22,1.68-58.3-6-82.5-26.37-.65-.55-1.29-1.1-1.93-1.67-1.15-1-2.28-2.11-3.34-3.23a25.14,25.14,0,0,1-6.31-10.31c-2-6.91.38-14.47,4.59-20.28s10.1-10.15,16-14.18c9.73-6.59,20.2-12.74,31.83-14.44,10.15-1.48,21.4,1.12,28.51,8.26A23.38,23.38,0,0,1,553,614a4.66,4.66,0,0,1,.3.47c1.92,2.92,3.26,6.21,5.24,9.1,5.4,7.85,15.24,11.85,24.77,11.95s18.79-3.26,27.24-7.65c20.34-10.57,37.07-27.22,50.3-45.94,6-8.46,11.46-19.49,6.76-28.73-2.48-4.89-7.23-8-11.66-11.33-1-.73-1.91-1.47-2.82-2.25-.54-.46-1.05-.93-1.54-1.42-16.82-16.68-6.06-48,6.26-63.66,8.93-11.37,25.82-30.36,42.45-26.57a17.7,17.7,0,0,1,5.79,2.78,50.17,50.17,0,0,1,13.26,13.29c1.06,1.5,2,3.05,3,4.63,5.37,9.1,9.08,19.41,13.39,29.09C765.15,563.94,688.18,638.73,637.36,669.13Z" transform="translate(-61.92 -0.45)"/><path class="cls-5" d="M646,653.46c-22.68,13.57-48.45,22.24-74.12,23.71-29.22,1.67-58.29-6-82.49-26.38-4.95-4.17-9.83-9-11.59-15.21a20,20,0,0,1-.34-8.93,37.93,37.93,0,0,0-3.68,4.33c-4.2,5.81-6.53,13.37-4.59,20.27,1.76,6.23,6.64,11,11.59,15.21,24.19,20.4,53.27,28.06,82.49,26.38,25.66-1.47,51.44-10.14,74.12-23.71C669.45,649.94,712,613,731.52,571.8,709.81,606.57,673.94,636.73,646,653.46Z" transform="translate(-61.92 -0.45)"/><path class="cls-5" d="M653.08,539.66c5.07,4.35,11.46,7.63,14.48,13.58,2.38,4.68,2.14,9.81.56,14.84.43-.59.87-1.18,1.29-1.78,6-8.46,11.46-19.49,6.77-28.73-3-6-9.42-9.24-14.49-13.58-13.48-11.56-11.82-31.39-5.18-47.7C644.41,492.94,634.75,524,653.08,539.66Z" transform="translate(-61.92 -0.45)"/><path class="cls-5" d="M722.28,468.71a87.16,87.16,0,0,0-15.81,5.22,84.85,84.85,0,0,0-45.11,46.3c-2.93,7.18-4.32,14.35-5.46,21.68-1-.73-1.91-1.47-2.82-2.25-.54-.46-1.05-.93-1.54-1.42,2.3-18.55,13.05-37.46,25.34-49.75a90.87,90.87,0,0,1,27.82-19,115.19,115.19,0,0,1,14.6-5.41C720.36,465.58,721.34,467.13,722.28,468.71Z" transform="translate(-61.92 -0.45)"/><path class="cls-5" d="M553.25,614.51c-3,.69-6,1.42-8.91,2.23A145.21,145.21,0,0,0,514.77,628a89.26,89.26,0,0,0-24,18.2c-5.27,5.75-8.71,12-11.94,18.61-1.15-1-2.28-2.11-3.34-3.23,6-15.15,21-28,34-35.58,10-5.88,21-10,32.2-13.13,2.81-.8,5.64-1.54,8.48-2.24A23.38,23.38,0,0,1,553,614,4.66,4.66,0,0,1,553.25,614.51Z" transform="translate(-61.92 -0.45)"/><path class="cls-6" d="M726.6,517c-.88-6.08-9.86-4.95-9.44,1.14a119.59,119.59,0,0,1-4.82,43c-2,6.89-4.14,13.4-7.69,19.67a84.19,84.19,0,0,1-6,9.45c-1.82,2.43-3.76,4.13-4.32,7.15-.12.63.51,1,1,.82,5.67-1.46,10.83-10,14-14.56,4.34-6.34,8.89-13.23,11.76-20.38A92.38,92.38,0,0,0,726.6,517Z" transform="translate(-61.92 -0.45)"/><path class="cls-6" d="M725.57,498.11a4.26,4.26,0,0,0-1.51-2.41l-1-.61a4.49,4.49,0,0,0-2.37-.35h-1.21a4.68,4.68,0,0,0-4,5.87,4.75,4.75,0,0,0,6.32,3.23l1.09-.42A4.5,4.5,0,0,0,725.57,498.11Z" transform="translate(-61.92 -0.45)"/><path class="cls-6" d="M614.66,629.39c-5.58,1.52-10.77,5-16.11,7.21A76.32,76.32,0,0,1,580.36,642c-12.11,1.79-23.8-.88-33.23-8.8-1.36-1.15-3.49.8-2.29,2.2,7.94,9.25,20.54,12.39,32.35,11.58a69.85,69.85,0,0,0,20.19-5c6.33-2.45,13.76-5.15,19.1-9.4A1.89,1.89,0,0,0,614.66,629.39Z" transform="translate(-61.92 -0.45)"/><path class="cls-6" d="M634.85,618.39a1.69,1.69,0,0,0-1.35-1.06c-2.07-.27-3.18,1.62-4.32,3.06a13.35,13.35,0,0,0-2.9,4.89A1.65,1.65,0,0,0,628.5,627c1.71-.76,3-2.4,4.23-3.79S635.52,620.42,634.85,618.39Z" transform="translate(-61.92 -0.45)"/><path class="cls-3" d="M648.09,235l-17,24.5c0-4.1-2.33-7.8-4.51-11.28A444,444,0,0,1,595.22,189c9.81,6.8,17.78,15.86,26.33,24.19a232.28,232.28,0,0,0,26.25,22.05l-2.95-1.33" transform="translate(-61.92 -0.45)"/><path class="cls-2" d="M541,133.92C560.74,171,575.22,209.35,600.42,243c2.3,2.66,34.85-7.26,38.13-7.74,14-2,34.4-7,48.27-8.13-28.14-17.23-61.35-33.92-88.36-52.86l-29.68-20.81C562.08,148.74,544.72,141,541,133.92Z" transform="translate(-61.92 -0.45)"/><path class="cls-3" d="M545.81,139.34l84,85.2c2.51,2.55,5.47,4.36,8.12,6.69,1.59,1.4,3.18,4.25,5.11,5a4.88,4.88,0,0,0,2.52.09c4-.56,6.22-2.5,10.2-3.21-2.4.43-8.17-4.68-10.47-6.24-5.15-3.5-9.85-8-14.64-12Q616,202.79,601.76,190.37,573.19,165.52,545.81,139.34Z" transform="translate(-61.92 -0.45)"/><path class="cls-9" d="M568,332.24c-10.09-1.62-20.56-1-30.74-1h-33l-65,0c-43,0-86-.07-129,0-24.4.06-48.67.13-73,2.15a1.51,1.51,0,0,0,0,3c43.15,3.57,86.72,2.15,130,2.16l129,0h36c11.8,0,24,.87,35.74-1C570.65,337.2,570.65,332.67,568,332.24Z" transform="translate(-61.92 -0.45)"/><path class="cls-9" d="M561.68,460.86c-9.74-1.59-19.54-1.5-29.39-1.75-10.31-.26-20.63-.34-30.95-.37l-61.89-.17c-41.27-.12-82.54,0-123.8,0H281.7c-11.34,0-23.48-1-34.62,1.38-2.44.53-2.44,4.4,0,4.93,9.6,2.08,19.86,1.35,29.63,1.38,10.32,0,20.64,0,31,0l61.9,0q61.9,0,123.8-.16c11.31,0,22.63,0,33.94-.27,11.47-.25,23,0,34.38-1.88C563.22,463.74,563.22,461.12,561.68,460.86Z" transform="translate(-61.92 -0.45)"/><path class="cls-4" d="M711.17,435.44c-1.51-.58-2.43,1.79-1.08,2.57,12.34,7.16,22.84,16,30.42,28.3s11,25.47,12.17,39.62a1.89,1.89,0,0,0,3.77,0C758.65,477.11,738,445.8,711.17,435.44Z" transform="translate(-61.92 -0.45)"/><path class="cls-4" d="M566.32,589.31c-4.4-3.86-12.11-4.2-17.74-4.89a100,100,0,0,0-21.88-.28c-13.59,1.32-27.66,5-39.17,12.59-1,.66-.38,2.56.87,2.06,12.46-5,24.82-9.09,38.3-10.06a99.76,99.76,0,0,1,18.53.32,101.13,101.13,0,0,1,11,1.87c3,.68,5.79,1.88,8.84,1.49C566.43,592.23,567.63,590.46,566.32,589.31Z" transform="translate(-61.92 -0.45)"/><path class="cls-4" d="M637.22,684c-4.5-.19-9.46,4.14-13.43,6.08a137.79,137.79,0,0,1-16.47,6.74,148.27,148.27,0,0,1-34,7.08C550,706,528,701.65,505.81,694.7a1.13,1.13,0,0,0-.86,2c20.67,11,46.13,14,69.21,12.24a146.92,146.92,0,0,0,50.27-13.07c4.37-2,12.3-4.51,14.44-9.07A1.94,1.94,0,0,0,637.22,684Z" transform="translate(-61.92 -0.45)"/><path class="cls-4" d="M114.86,563.5a70.48,70.48,0,0,0-19.7,30.28c-3.66,10.83-6,24.68-1.93,35.72a.93.93,0,0,0,1.82-.24c.35-11.64-.08-22.45,3.76-33.7a72.67,72.67,0,0,1,19-29.09C119.79,564.58,116.87,561.73,114.86,563.5Z" transform="translate(-61.92 -0.45)"/><path class="cls-4" d="M261.26,665.4c-2.88,3.48-4.57,7.9-7.15,11.63a67.32,67.32,0,0,1-10.21,11.64c-7.91,7.17-17,11.62-26.79,15.63a1.31,1.31,0,0,0,.7,2.53c10.44-1.55,20.3-7.17,28.26-13.92a70.38,70.38,0,0,0,10.47-11.08c3.14-4.12,7.13-9.34,7.89-14.58C264.67,665.62,262.62,663.76,261.26,665.4Z" transform="translate(-61.92 -0.45)"/><path class="cls-4" d="M280.59,676.82c-3.4,1.88-5.72,5.54-8.45,8.23a81.71,81.71,0,0,1-10.41,8.71c-1.76,1.23-.13,4.12,1.7,2.91a75.11,75.11,0,0,0,10.9-8.56c2.91-2.79,6.7-6.14,7.66-10.22A1,1,0,0,0,280.59,676.82Z" transform="translate(-61.92 -0.45)"/><path class="cls-4" d="M188.23,115.08c-.63-3.07-1.32-6.12-2.15-9.14-.47-1.7-3.39-1.44-3.18.43.33,2.89.79,5.74,1.3,8.6.44,2.46.48,5.47,2.46,7.19a1.11,1.11,0,0,0,1.73-.22C189.51,119.75,188.7,117.4,188.23,115.08Z" transform="translate(-61.92 -0.45)"/><path class="cls-4" d="M155.58,132.76a4.31,4.31,0,0,0-1.66-2c-.79-.55-1.63-1-2.38-1.64a17,17,0,0,1-3.66-4.51c-.85-1.47-3.37-.5-2.81,1.18a14.74,14.74,0,0,0,3.78,6,12.64,12.64,0,0,0,2.68,2.09,3.61,3.61,0,0,0,3.43.37A1.05,1.05,0,0,0,155.58,132.76Z" transform="translate(-61.92 -0.45)"/><path class="cls-4" d="M133.21,157.85c-2.34-2.6-5.66-3.86-8.78-5.31a75.72,75.72,0,0,0-9.58-4c-1.15-.34-1.63,1.2-.77,1.82a78.4,78.4,0,0,0,10,5.7c2.79,1.46,5.39,3,8.57,3.24C133.39,159.35,133.66,158.34,133.21,157.85Z" transform="translate(-61.92 -0.45)"/><path class="cls-4" d="M113.39,197.61c-1.62-1.57-4-1.43-6.11-1.68a69.15,69.15,0,0,0-8.62-.75,1.17,1.17,0,0,0-.31,2.28,70,70,0,0,0,8.49,1.69c2.16.37,4.33,1.14,6.34.08A1,1,0,0,0,113.39,197.61Z" transform="translate(-61.92 -0.45)"/><path class="cls-4" d="M110.35,229.15c-2.84-1.23-6.67-.6-9.69-.41a1.6,1.6,0,0,0,0,3.19c3,.19,6.85.83,9.69-.41A1.38,1.38,0,0,0,110.35,229.15Z" transform="translate(-61.92 -0.45)"/><path class="cls-4" d="M237.67,108.06a1.06,1.06,0,0,0-1.53-.62c-2,1.28-2.45,3.79-3.19,5.92a72.28,72.28,0,0,0-2.54,8.63c-.29,1.38,1.66,2.38,2.37,1a66.54,66.54,0,0,0,3.29-7.67C236.91,113.08,238.42,110.45,237.67,108.06Z" transform="translate(-61.92 -0.45)"/><path class="cls-4" d="M287,125.12c-2.08-.63-4.39.57-6.17,1.58a19.4,19.4,0,0,0-5.26,4.54c-1.25,1.51.76,3.64,2.19,2.19a20.39,20.39,0,0,1,4.88-3.63c1.6-.87,3.61-1.26,4.92-2.57A1.28,1.28,0,0,0,287,125.12Z" transform="translate(-61.92 -0.45)"/><path class="cls-4" d="M301.53,156.73c-1.7,1.34-3.09,2.68-5.24,3.29-1.51.43-1.29,2.95.38,2.83,2.91-.21,6.18-1.89,6.95-4.91A1.26,1.26,0,0,0,301.53,156.73Z" transform="translate(-61.92 -0.45)"/><path class="cls-3" d="M431.73,560.18c-11.1-.12-22.47,2.2-33.58,2.89-11.54.71-23.12,1-34.68.85-22.79-.28-45.48-2.33-68.13-4.65-1.82-.19-2.21,2.8-.43,3.2,22.5,5,45.54,7,68.56,7.38q17.36.25,34.68-.81c11.15-.68,23.47-.75,34.26-3.8A2.59,2.59,0,0,0,431.73,560.18Z" transform="translate(-61.92 -0.45)"/><path class="cls-3" d="M573.65,261.33c-6.38-4.86-15.87-7.43-23.33-10.22q-12.54-4.71-25.43-8.43a356.9,356.9,0,0,0-52.06-10.89,347.53,347.53,0,0,0-53.46-3c-17.24.38-36,1.18-52.63,6.15a.78.78,0,0,0,.21,1.52c17.21-.79,34.23-3.47,51.52-3.77a359.73,359.73,0,0,1,52.59,2.86A351.07,351.07,0,0,1,523,246.27q12.45,3.57,24.61,8,5.86,2.16,11.65,4.54c4.3,1.77,8.66,4.31,13.23,5.26A1.54,1.54,0,0,0,573.65,261.33Z" transform="translate(-61.92 -0.45)"/><path class="cls-3" d="M691.37,306.42c-8.2-7.31-17.55-13.2-25.67-20.6a66.44,66.44,0,0,1-10.34-11.63c-3-4.39-4.67-9.21-6.79-14-.36-.8-1.62-.37-1.6.44.33,14.7,15,26.95,25.53,35.22,13,10.17,28.41,20.54,32.91,37.41,2.11,7.87.9,16.21-4.19,22.58-1.25-4.23-4.09-7.85-9.3-10.19-5.56-2.5-12.1-1.36-15.68,3.81-3.21,4.62-3,10.78,1.5,14.48,6.62,5.43,14.34,3.85,20.54-.61-.09,7.72-4.54,15-8.23,21.59a1.93,1.93,0,0,0,3.33,1.95c4.31-7,9.14-17.62,8.59-26.7a28.63,28.63,0,0,0,7-11.36C713.9,332.6,702.87,316.67,691.37,306.42Zm-1,56.5c-4.65,1-12.08-.32-12.59-6.28-.49-5.72,5.51-9.48,10.62-8.23,4.77,1.17,8.12,5.28,9.29,9.91.07.29.12.59.18.89A17.76,17.76,0,0,1,690.39,362.92Z" transform="translate(-61.92 -0.45)"/></svg>